<?xml version="1.0" encoding="UTF-8" standalone="no"?>
<!-- Created with Inkscape (http://www.inkscape.org/) -->
<svg xmlns:inkscape="http://www.inkscape.org/namespaces/inkscape" xmlns:rdf="http://www.w3.org/1999/02/22-rdf-syntax-ns#" xmlns="http://www.w3.org/2000/svg" xmlns:xlink="http://www.w3.org/1999/xlink" xmlns:ns1="http://sozi.baierouge.fr" xmlns:cc="http://creativecommons.org/ns#" xmlns:sodipodi="http://sodipodi.sourceforge.net/DTD/sodipodi-0.dtd" xmlns:dc="http://purl.org/dc/elements/1.1/" id="svg2" xml:space="preserve" viewBox="0 0 125.85 106.1" version="1.1" inkscape:version="0.91 r13725">
  <defs id="defs6">
    <linearGradient id="linearGradient30" y2="105.09" gradientUnits="userSpaceOnUse" x2="44.845" gradientTransform="matrix(.50704 .6188 .69416 -.41504 .00033544 84.88)" y1="105.09" x1="-20.28">
      <stop id="stop32" style="stop-color:#4c3b2a" offset="0"/>
      <stop id="stop34" style="stop-color:#625d38" offset=".2588"/>
      <stop id="stop38" style="stop-color:#747843" offset=".43530"/>
      <stop id="stop40" style="stop-color:#818b4b" offset=".6196"/>
      <stop id="stop42" style="stop-color:#899750" offset=".8039"/>
      <stop id="stop44" style="stop-color:#8c9b51" offset="1"/>
    </linearGradient>
    <linearGradient id="linearGradient58" y2="71.141" gradientUnits="userSpaceOnUse" x2="38.771" gradientTransform="matrix(.45504 .658 .658 -.45504 -.00034072 84.88)" y1="71.141" x1="-33.787">
      <stop id="stop60" style="stop-color:#4c3b2a" offset="0"/>
      <stop id="stop62" style="stop-color:#625d38" offset=".2588"/>
      <stop id="stop66" style="stop-color:#747843" offset=".43530"/>
      <stop id="stop68" style="stop-color:#818b4b" offset=".6196"/>
      <stop id="stop70" style="stop-color:#899750" offset=".8039"/>
      <stop id="stop72" style="stop-color:#8c9b51" offset="1"/>
    </linearGradient>
    <linearGradient id="linearGradient86" y2="57.921" gradientUnits="userSpaceOnUse" x2="25.009" gradientTransform="matrix(.45504 .658 .658 -.45504 -.00034072 84.88)" y1="57.921" x1="-47.549">
      <stop id="stop88" style="stop-color:#4c3b2a" offset="0"/>
      <stop id="stop90" style="stop-color:#625d38" offset=".2588"/>
      <stop id="stop94" style="stop-color:#747843" offset=".43530"/>
      <stop id="stop96" style="stop-color:#818b4b" offset=".6196"/>
      <stop id="stop98" style="stop-color:#899750" offset=".8039"/>
      <stop id="stop100" style="stop-color:#8c9b51" offset="1"/>
    </linearGradient>
    <linearGradient id="linearGradient114" y2="71.725" gradientUnits="userSpaceOnUse" x2="-24.983" gradientTransform="matrix(-.0932 .79456 .79168 .11784 -.00015368 84.88)" y1="71.725" x1="-90.262">
      <stop id="stop116" style="stop-color:#4c3b2a" offset="0"/>
      <stop id="stop118" style="stop-color:#625d38" offset=".2588"/>
      <stop id="stop122" style="stop-color:#747843" offset=".43530"/>
      <stop id="stop124" style="stop-color:#818b4b" offset=".6196"/>
      <stop id="stop126" style="stop-color:#899750" offset=".8039"/>
      <stop id="stop128" style="stop-color:#8c9b51" offset="1"/>
    </linearGradient>
    <linearGradient id="linearGradient142" y2="44.794" gradientUnits="userSpaceOnUse" x2="115.24" gradientTransform="matrix(.8 0 0 -.8 -.000081224 84.88)" y1="79.985" x1="105.86">
      <stop id="stop144" style="stop-color:#4c3b2a" offset="0"/>
      <stop id="stop146" style="stop-color:#625d38" offset=".2588"/>
      <stop id="stop150" style="stop-color:#747843" offset=".43530"/>
      <stop id="stop152" style="stop-color:#818b4b" offset=".6196"/>
      <stop id="stop154" style="stop-color:#899750" offset=".8039"/>
      <stop id="stop156" style="stop-color:#8c9b51" offset="1"/>
    </linearGradient>
    <linearGradient id="linearGradient170" y2="35.159" gradientUnits="userSpaceOnUse" x2="-31.531" gradientTransform="matrix(.20528 .7732 .78864 -.14704 .00015986 84.88)" y1="35.159" x1="-79.279">
      <stop id="stop172" style="stop-color:#4c3b2a" offset="0"/>
      <stop id="stop174" style="stop-color:#625d38" offset=".2588"/>
      <stop id="stop178" style="stop-color:#747843" offset=".43530"/>
      <stop id="stop180" style="stop-color:#818b4b" offset=".6196"/>
      <stop id="stop182" style="stop-color:#899750" offset=".8039"/>
      <stop id="stop184" style="stop-color:#8c9b51" offset="1"/>
    </linearGradient>
    <linearGradient id="linearGradient198" y2="25.159" gradientUnits="userSpaceOnUse" x2="82.415" gradientTransform="matrix(.8 0 0 -.8 -.000081224 84.88)" y1="89.008" x1="99.645">
      <stop id="stop200" style="stop-color:#4c3b2a" offset="0"/>
      <stop id="stop202" style="stop-color:#625d38" offset=".2588"/>
      <stop id="stop206" style="stop-color:#747843" offset=".43530"/>
      <stop id="stop208" style="stop-color:#818b4b" offset=".6196"/>
      <stop id="stop210" style="stop-color:#899750" offset=".8039"/>
      <stop id="stop212" style="stop-color:#8c9b51" offset="1"/>
    </linearGradient>
    <linearGradient id="linearGradient226" y2="25.894" gradientUnits="userSpaceOnUse" x2="-50.176" gradientTransform="matrix(-.11056 .79232 .78976 .12872 -.00026433 84.879)" y1="25.894" x1="-97.581">
      <stop id="stop228" style="stop-color:#4c3b2a" offset="0"/>
      <stop id="stop230" style="stop-color:#625d38" offset=".2588"/>
      <stop id="stop234" style="stop-color:#747843" offset=".43530"/>
      <stop id="stop236" style="stop-color:#818b4b" offset=".6196"/>
      <stop id="stop238" style="stop-color:#899750" offset=".8039"/>
      <stop id="stop240" style="stop-color:#8c9b51" offset="1"/>
    </linearGradient>
    <linearGradient id="linearGradient254" y2="31.449" gradientUnits="userSpaceOnUse" x2="47.842" gradientTransform="matrix(.8 0 0 -.8 -.000081224 84.88)" y1="93.123" x1="59.123">
      <stop id="stop256" style="stop-color:#4c3b2a" offset="0"/>
      <stop id="stop258" style="stop-color:#625d38" offset=".2588"/>
      <stop id="stop262" style="stop-color:#747843" offset=".43530"/>
      <stop id="stop264" style="stop-color:#818b4b" offset=".6196"/>
      <stop id="stop266" style="stop-color:#899750" offset=".8039"/>
      <stop id="stop268" style="stop-color:#8c9b51" offset="1"/>
    </linearGradient>
    <linearGradient id="linearGradient282" y2="41.368" gradientUnits="userSpaceOnUse" x2="62.494" gradientTransform="matrix(.8 0 0 -.8 -.000081224 84.88)" y1="96.656" x1="71.049">
      <stop id="stop284" style="stop-color:#4c3b2a" offset="0"/>
      <stop id="stop286" style="stop-color:#625d38" offset=".2588"/>
      <stop id="stop290" style="stop-color:#747843" offset=".43530"/>
      <stop id="stop292" style="stop-color:#818b4b" offset=".6196"/>
      <stop id="stop294" style="stop-color:#899750" offset=".8039"/>
      <stop id="stop296" style="stop-color:#8c9b51" offset="1"/>
    </linearGradient>
  </defs>
  <g id="g10" transform="matrix(1.25 0 0 -1.25 0 106.1)">
    <g id="g12">
      <path id="path14" style="fill-rule:evenodd;fill:#4c3b2a" d="m27.641 32.879c7.625 0 14.132-1.199 19.519-3.598 5.414-2.375 8.121-5.254 8.121-8.64 0-3.387-2.707-6.266-8.121-8.641-5.387-2.375-11.894-3.558-19.519-3.558-7.629 0-14.133 1.183-19.52 3.558-5.414 2.375-8.121 5.254-8.121 8.641 0 3.386 2.707 6.265 8.121 8.64 5.387 2.399 11.891 3.598 19.52 3.598z" inkscape:connector-curvature="0"/>
      <path id="path16" style="fill-rule:evenodd;fill:#4c3b2a" d="m94.559 19.32c0-3.386-2.707-6.265-8.118-8.64-5.386-2.399-11.894-3.602-19.523-3.602-7.625 0-14.145 1.203-19.559 3.602-5.386 2.375-8.078 5.254-8.078 8.64 0 3.36 2.692 6.227 8.078 8.598 5.414 2.402 11.934 3.602 19.559 3.602 7.629 0 14.137-1.2 19.523-3.602 5.411-2.371 8.118-5.238 8.118-8.598z" inkscape:connector-curvature="0"/>
      <path id="path18" style="fill-rule:evenodd;fill:#4c3b2a" d="m45.441 24.399c7.653 0 14.172-1.184 19.559-3.559s8.078-5.254 8.078-8.641c0-3.386-2.691-6.265-8.078-8.64-5.387-2.371-11.906-3.559-19.559-3.559-7.629 0-14.136 1.188-19.523 3.559-5.383 2.375-8.078 5.254-8.078 8.64 0 3.387 2.695 6.266 8.078 8.641 5.387 2.375 11.894 3.559 19.523 3.559z" inkscape:connector-curvature="0"/>
      <g id="g20">
        <g id="g22">
          <g id="g28">
            <path id="path46" style="fill-rule:evenodd;fill:url(#linearGradient30)" d="m87.32 56.121c-0.668-4.621-2.132-9.414-4.402-14.383-2.426-5.355-6.09-11.601-11-18.746l-7.918 5.215c0.852 1.352 2 2.86 3.441 4.527 1.52 1.778 2.653 3.215 3.399 4.321 1.414 2.051 2.801 4.59 4.16 7.617l4 9.863c2.559 6.485 5.094 13.289 7.602 20.41 1.25-7.089 1.492-13.363 0.718-18.824z" inkscape:connector-curvature="0"/>
          </g>
        </g>
      </g>
      <g id="g48">
        <g id="g50">
          <g id="g56">
            <path id="path74" style="fill-rule:evenodd;fill:url(#linearGradient58)" d="m56.078 62.758c-0.664-5.438-2.133-11.09-4.398-16.957-2.426-6.32-6.094-13.707-11-22.16l-7.918 6.039c0.851 1.601 2 3.387 3.437 5.359 1.52 2.106 2.656 3.813 3.403 5.121 1.41 2.426 2.796 5.426 4.16 9l4 11.641c2.558 7.652 5.09 15.68 7.597 24.078 1.254-8.32 1.493-15.691 0.719-22.121z" inkscape:connector-curvature="0"/>
          </g>
        </g>
      </g>
      <g id="g76">
        <g id="g78">
          <g id="g84">
            <path id="path102" style="fill-rule:evenodd;fill:url(#linearGradient86)" d="m41.121 59.719c-0.668-5.438-2.137-11.094-4.402-16.961-2.426-6.316-6.094-13.703-11-22.156l-7.918 6.039c0.851 1.597 2 3.386 3.437 5.359 1.524 2.106 2.657 3.813 3.403 5.117 1.414 2.43 2.8 5.43 4.16 9l4 11.641c2.558 7.652 5.094 15.68 7.597 24.082 1.254-8.32 1.497-15.695 0.723-22.121z" inkscape:connector-curvature="0"/>
          </g>
        </g>
      </g>
      <g id="g104">
        <g id="g106">
          <g id="g112">
            <path id="path130" style="fill-rule:evenodd;fill:url(#linearGradient114)" d="m75.898 75.977c-2.718-3.028-5.48-6.563-8.281-10.606-5.543-8.09-8.429-14.703-8.668-19.844-0.508-2.519-0.383-6.355 0.379-11.503 1.039-7.258 1.606-11.606 1.699-13.036l-12.632-1.754c-1.5 15.665-0.196 27.641 3.921 35.926 3.973 7.946 11.836 14.883 23.582 20.817z" inkscape:connector-curvature="0"/>
          </g>
        </g>
      </g>
      <g id="g132">
        <g id="g134">
          <g id="g140">
            <path id="path158" style="fill-rule:evenodd;fill:url(#linearGradient142)" d="m100.68 46.84c-1.946-1.016-4-2.281-6.16-3.801-4.348-3.066-7.04-5.879-8.079-8.437-0.718-1.203-1.363-3.188-1.921-5.961-0.747-3.949-1.227-6.282-1.442-7l-6.84 1.558c2.028 8.293 4.856 14.149 8.485 17.559 3.492 3.309 8.812 5.336 15.957 6.082z" inkscape:connector-curvature="0"/>
          </g>
        </g>
      </g>
      <g id="g160">
        <g id="g162">
          <g id="g168">
            <path id="path186" style="fill-rule:evenodd;fill:url(#linearGradient170)" d="m26.121 54.84c-1.414-2.453-2.855-5.348-4.32-8.68-2.906-6.695-4.442-12.308-4.602-16.84-0.105-3.253-0.144-5.785-0.121-7.601 0-0.774-0.25-2.453-0.758-5.039-3.093 0.879-5.707 1.601-7.84 2.16 0.985 7.148 1.665 11.984 2.04 14.519 0.613 4 1.32 6.985 2.121 8.961 0.961 2.321 2.437 4.399 4.437 6.239 1.867 1.707 4.883 3.8 9.043 6.281z" inkscape:connector-curvature="0"/>
          </g>
        </g>
      </g>
      <g id="g188">
        <g id="g190">
          <g id="g196">
            <path id="path214" style="fill-rule:evenodd;fill:url(#linearGradient198)" d="m78.918 68.32c-1.652-3.171-3.25-6.851-4.797-11.039-3.043-8.375-4.215-15.121-3.519-20.242 0.023-2.531 0.785-6.332 2.277-11.398 2.082-7.149 3.281-11.426 3.601-12.84l-9.8-2.52c-3.891 15.465-4.907 27.438-3.039 35.918 1.812 8.133 6.906 15.508 15.277 22.121z" inkscape:connector-curvature="0"/>
          </g>
        </g>
      </g>
      <g id="g216">
        <g id="g218">
          <g id="g224">
            <path id="path242" style="fill-rule:evenodd;fill:url(#linearGradient226)" d="m30.68 17.078c0.851-3.465 1.32-5.531 1.398-6.199-6.105-0.211-10-0.426-11.68-0.641-1.277 8.403-0.117 15.961 3.481 22.68 1.359 2.563 3.309 5.453 5.84 8.684 3.066 3.734 5.386 6.613 6.961 8.64l-3.2-9.043c-2.16-6.718-3.32-11.851-3.48-15.398-0.16-3.359 0.066-6.27 0.68-8.723z" inkscape:connector-curvature="0"/>
          </g>
        </g>
      </g>
      <g id="g244">
        <g id="g246">
          <g id="g252">
            <path id="path270" style="fill-rule:evenodd;fill:url(#linearGradient254)" d="m52.441 61.961c-1.253-3.469-2.535-7.414-3.839-11.84-2.59-8.801-3.977-15.535-4.161-20.203-0.187-4.426 0.094-8.238 0.84-11.437 1.039-4.536 1.598-7.227 1.68-8.082-7.359-0.266-12.055-0.559-14.082-0.879-1.574 11.011-0.184 20.945 4.16 29.8 1.629 3.332 3.961 7.118 7 11.36 3.707 4.879 6.508 8.64 8.402 11.281z" inkscape:connector-curvature="0"/>
          </g>
        </g>
      </g>
      <g id="g272">
        <g id="g274">
          <g id="g280">
            <path id="path298" style="fill-rule:evenodd;fill:url(#linearGradient282)" d="m58.641 43c-2.321-7.785-3.575-13.746-3.762-17.879-0.156-3.894 0.094-7.254 0.762-10.082 0.933-4.051 1.437-6.437 1.519-7.16-6.586-0.238-10.773-0.492-12.558-0.758-1.414 9.731-0.188 18.504 3.679 26.321 1.465 2.957 3.559 6.304 6.278 10.039 3.281 4.343 5.773 7.679 7.48 10-1.121-3.067-2.254-6.563-3.398-10.481z" inkscape:connector-curvature="0"/>
          </g>
        </g>
      </g>
    </g>
  </g>
<metadata><rdf:RDF><cc:Work><dc:format>image/svg+xml</dc:format><dc:type rdf:resource="http://purl.org/dc/dcmitype/StillImage"/><cc:license rdf:resource="http://creativecommons.org/licenses/publicdomain/"/><dc:publisher><cc:Agent rdf:about="http://openclipart.org/"><dc:title>Openclipart</dc:title></cc:Agent></dc:publisher></cc:Work><cc:License rdf:about="http://creativecommons.org/licenses/publicdomain/"><cc:permits rdf:resource="http://creativecommons.org/ns#Reproduction"/><cc:permits rdf:resource="http://creativecommons.org/ns#Distribution"/><cc:permits rdf:resource="http://creativecommons.org/ns#DerivativeWorks"/></cc:License></rdf:RDF></metadata></svg>
