<?xml version="1.0" encoding="utf-8"?>

<!DOCTYPE svg PUBLIC "-//W3C//DTD SVG 1.1//EN" "http://www.w3.org/Graphics/SVG/1.1/DTD/svg11.dtd">
<svg version="1.1" id="Layer_1" xmlns="http://www.w3.org/2000/svg" xmlns:xlink="http://www.w3.org/1999/xlink" x="0px" y="0px"
	 viewBox="0 0 1973.259 1480.681" enable-background="new 0 0 1973.259 1480.681" xml:space="preserve">
<g>
	<path fill="#693A0C" stroke="#693A0C" d="M1094.64,30.474c5.68-1.52,11.47,0.47,16.79,2.41c10.82,4.15,18.96,12.92,29.61,17.41
		c4.69,2.72,10.09,3.29,15.39,3.65c4.16,0.75,8.42,0.75,12.59-0.01c8.08-0.25,15.99-1.92,23.7-4.33
		c15.56-4.42,31.08-9.23,47.07-11.88c5.84-1.17,11.91-1.44,17.73,0.08c8.54,1.73,16.17,8.31,18.11,16.96
		c2.33,6.83-0.46,13.87-2.33,20.44c-5.89,17.57-16.86,34.74-34.05,42.95c-10.14,4.7-21.15,8.21-32.39,8.5
		c-3.09-0.1-6.17-0.13-9.25-0.02c-9.21,0.07-18.3-1.94-27.33-3.53c-8.79-1.69-17.6-3.59-25.84-7.19c-4.32-1.58-10.15-3.5-13.7,0.64
		c-5.18,7.21-9.37,15.12-12.68,23.36c-2.69,6.74-6.03,13.4-6.67,20.74c-1.11,0.73-1.1,2.21,0,2.96c2.33,3.38,5.13,6.38,8.13,9.19
		c11.75,12.68,23.32,25.62,32.99,40c10.28,14.99,19.59,30.77,26.42,47.65c8.58,20.37,14.93,41.69,18.4,63.53
		c2.4,15.42,4.6,30.98,4.39,46.62c0.54,22.74-2.98,45.36-7.34,67.63c-8.22,39.26-23.58,77.3-46.97,110.01
		c-4.66,6.6-9.96,12.71-15.08,18.96c-1.36,1.51-2.08,3.42-2.89,5.24c-0.38,0.39-1.14,1.15-1.52,1.54c0.19,1.53,2.03,0.38,2.73-0.14
		c6.19-0.58,11.52-3.77,17.08-6.25c15.69-7.76,31.48-15.37,46.43-24.52c33.25-19.55,63.91-43.06,94.22-66.82
		c15.48-12.44,30.7-25.23,45.18-38.82c13.64-12,25.95-25.41,37.93-39.03c12.48-14.2,23.36-29.71,33.33-45.74
		c8.27-14.09,15.33-28.94,20.42-44.49c4.16-13.09,5.16-27.01,4.2-40.66c-0.85-8.14-3.21-16.16-7.45-23.19
		c-8.58-14.62-21.32-26.19-30.79-40.16c-4.09-6.44-8.41-14.19-5.94-22.02c2.36-10.14,10.19-18.67,20.04-21.98
		c5.51-1.84,11.29-3.46,17.15-3.15c8.45,1.03,16.65,3.81,24.22,7.67c7.59,4.36,15.37,9.31,19.86,17.1
		c6.36,9.76,7.19,21.71,11.82,32.18c1.12,3.29,4.25,5.14,6.11,7.88c0.34,2.82,3.17,1.33,2.39-0.91c0.22-2.67,2.22-4.81,2.8-7.41
		c7.85-30.06,18.83-59.21,31.33-87.61c3.05-7.26,7.03-14.1,11.41-20.63c5.75-7.3,12.59-14.57,21.73-17.37
		c6.32-2.41,12.94,1.62,17.53,5.75c6.39,7.3,9.49,17.38,9.08,27.02c-1.37,14.03-4.53,27.85-8.77,41.3c-0.83,2.83-2.78,5.36-2.78,8.4
		c0.1,1.65,0,3.33-0.46,4.92c-0.64,0.7-2.17,2.79-0.35,2.99c0.98-0.64,1.33-1.58,1.04-2.82c1.56,0.01,3.17-0.1,4.78-0.09
		c-0.07-0.43-0.22-1.3-0.29-1.73c1.33-0.98,2.49-2.19,3-3.81c5.92-7.74,13.43-13.97,20.83-20.22c10.44-9.19,21.87-18.54,35.95-21.09
		c8.25-0.63,17.18,3.65,20.78,11.34c2.37,5.21,4.09,11.12,2.42,16.81c-2.32,12.58-8.92,23.74-16.15,34.08
		c-1.72,2.01-1.39,4.93-3.03,6.94c-1.32-0.53-3.08,1.93-0.99,1.89c0.33-0.28,0.99-0.84,1.31-1.12c2.36-0.87,4.94,0,7.35-0.67
		c6.56-2.05,13.38-3.48,20.25-3.82c9.36,0.87,18.89,2.83,27.12,7.57c7.16,4.43,12.94,11.32,15.37,19.46
		c1.29,5.38-1.29,10.68-3.51,15.44c-3.69,6.97-8.73,13.32-15.24,17.83c-18.86,12.81-40.48,20.56-61.76,28.3
		c-5.18,2.03-10.96,3.17-15.09,7.15c-1.39,1.07-0.84,3.06-0.76,4.56c0.55,7.06-0.94,14.07-2.44,20.93
		c-3.74,17.74-13.76,33.74-26.78,46.18c-12.83,12.89-28.93,21.72-44.83,30.19c-17.01,7.88-31.56,20.1-44.69,33.3
		c-17.68,18.4-33.23,38.71-50.79,57.22c-5.86,6.77-12.25,13.08-19.03,18.92c-13.52,12.49-25.7,26.37-39.59,38.46
		c-7.57,7.08-14.51,14.84-22.47,21.51c-27.92,27.26-57.48,52.89-88.7,76.32c-29.64,22.15-61.93,40.31-93.53,59.43
		c-14.86,8.73-28.89,18.85-44.21,26.79c-2.92,1.57-6.45,2.99-7.76,6.29c-0.47,3.38,0.27,6.8,1.58,9.92
		c4.35,10.79,9.18,21.38,14.18,31.87c4.21,7.76,8.31,15.59,12.84,23.17c1.25,2.49,3.83,3.78,5.64,5.8c0.05,0,0.14,0,0.19-0.01
		c1.9-1.69,4.69-2.03,6.42-3.93c21.4-26.22,42.82-52.44,64.62-78.34c14.56-17.07,30.16-33.51,48.74-46.28
		c11.77-8.32,25.42-14.16,39.75-16.1c10.35-1.06,20.19-5.47,30.69-5.39c3.08,0.09,6.17,0.1,9.27,0c9.82,0.04,19.43,2.62,28.89,5.09
		c19,5.21,36.55,14.84,52.03,26.93c11.89,9.68,22.8,20.62,32.44,32.55c23.06,28.96,40.26,61.92,57.5,94.5
		c3.72,8.1,8.53,15.62,12.32,23.68c22,42.09,48,81.94,75.1,120.89c1.45,2.26,3.94,3.49,6.07,5.06c3.24-1.69,5.65-4.57,7.58-7.61
		c4.57-7.04,9.28-13.99,14.15-20.83c10.98-16.47,21.94-33.05,34.97-48c9.52-11.26,20.88-21.09,33.72-28.39
		c10.8-5.73,22.92-8.5,34.96-10.15c6.99-1.23,14.09,0.06,20.92,1.64c10.11,2.73,20.09,8.04,25.91,17.05
		c5.03,7.23,7.17,15.93,8.54,24.51c6.73,0.62,13.06-3.05,19.79-1.96c25.88,3.36,47.32,27.08,48.14,53.14
		c-0.75,7.72-3.31,15.24-7.18,21.95c-1.56,2.51-2.17,5.41-2.86,8.24c-0.31,0.2-0.93,0.59-1.24,0.78c-0.37,0.33-1.13,0.99-1.51,1.32
		c0.45,1.57,2.47,0.44,3.54,0.14c15.1-2.47,31.52,1.26,43.33,11.26c13.25,10.7,23.74,26.09,25.42,43.35
		c-0.95,13.05-8.04,25.23-17.71,33.84c-11.34,10.51-26.07,16.44-40.85,20.21c-6.06,1.25-12.09,3.17-18.32,2.98
		c-1.22-0.1-2.4-0.1-3.57,0c-7.12,0.04-13.95-2.46-20.59-4.76c-4.61-1.99-9.41-3.64-14.45-3.9c-4.41,3.49-6.22,8.96-9.02,13.63
		c-15.56,28.45-33.66,55.61-55.18,79.92c-19.84,22.05-42.19,42.25-68.14,56.89c-20.56,12.3-43.88,20.15-67.79,22.07
		c-20.3-1.27-40.61-7.09-57.75-18.21c-14.9-9.37-27.68-21.78-38.37-35.69c-9.73-12.18-16.77-26.14-24.24-39.74
		c-8.46-18.22-16.74-36.55-23.62-55.43c-15.24-39.63-27.87-80.24-44.57-119.3c-10.93-26.14-23.1-51.84-38.39-75.75
		c-4.78-7.09-8.74-15.22-16.12-19.98c-0.67-1.35-1.27-1.32-1.79,0.08c-1.2,1.83-3.34,2.83-4.48,4.74
		c-28.36,49.4-59.16,97.63-95.21,141.82c-12.79,15.46-25.8,30.81-40.21,44.79c-5.51,5.49-10.96,11.04-16.51,16.49
		c-13.49,12.25-27.22,24.29-41.91,35.08c-27.68,20.33-57.53,37.92-89.58,50.39c-38.35,14.97-79.09,23.97-120.22,25.96
		c-10.11,0.31-20.22,0.01-30.32,0.28c-24.37-0.98-48.57-4.65-72.36-9.9c-17.75-4.16-35.36-9.05-52.4-15.58
		c-57.79-20.8-109.29-56.39-153.79-98.29c-1.84-1.71-4.77-1.57-6.32-3.7c-0.6-0.98-1.15-3.04-2.64-2.55
		c-0.77,1.38,0.83,2.59,1.61,3.59c0.86,2.64,0.74,5.54,1.93,8.11c7.47,16.02,14.38,32.29,21.72,48.38
		c17.3,38.95,37.41,76.82,50.31,117.59c5.71,18.79,10.44,38.08,11.49,57.76c0.01,3.73,0.02,7.46,0.01,11.19
		c-1.5,20.4-7.12,40.78-17.98,58.25c-17.57,28.07-46.24,47.74-76.95,59.04c-20.05,7.65-41.23,12.19-62.57,14.23
		c-25.5,2.1-51.04-2.26-75.61-8.87c-16.78-5.2-33.38-11.49-48.55-20.44c-23.26-13.03-43.61-30.86-60.97-51
		c-1.6-1.87-3.71-3.16-5.68-4.56c-0.68-1.29-1.32-1.27-1.92,0.03c-6.2,2.02-10.78,6.84-16.39,9.94c-9.66,5.66-20.96,9.41-32.25,7.83
		c-10.12-1.46-20.43-3.47-29.39-8.62c-7.65-4.3-14.83-9.95-19.37-17.58c-4.2-6.65-7.11-14.44-6.86-22.38
		c1.91-15.16,8.65-29.8,19.39-40.74c6.04-6.49,13.02-12.25,21.21-15.77c3.04-1.22,5.94-2.74,8.85-4.23c0.5-0.21,1.51-0.61,2.01-0.81
		l0.73-0.55c2.14-0.98-0.3-2.23-1.54-2.12c-2.08-0.71-3.02-3.15-4.92-4.24c-12.83-8.35-24.17-20.13-29.07-34.91
		c-2-5.98-4.28-12.21-3.59-18.62c2.55-16.35,11-31.72,23.54-42.54c9.76-8.32,22.88-13.35,35.79-11.48c0.41,0.06,1.24,0.19,1.66,0.25
		l1.03,0.22c2.5,1.2,2.57-1.72,0.84-2.74c-2.73-8.39-6.87-16.6-7.35-25.6c0.2-8.8,3.65-17.52,9.86-23.81
		c10.04-11.19,25.35-15.49,39.83-16.95c8.44,0.01,16.76,1.85,25.01,3.53c12.39,2.53,24.25,7.13,35.77,12.27
		c3.32,1.6,6.97,2.75,9.72,5.31c1.83,1.97,4.73,1.26,7.13,1.41c-0.47-2.7-0.11-5.52-1.25-8.09
		c-17.59-40.85-32.17-82.91-46.06-125.15c-14.56-46.33-30.13-92.59-38.48-140.56c-0.43-3.48-1.93-7.27-5.57-8.42
		c-11.25-4.19-22.6-8.23-33.35-13.62c-30.71-15.41-58.82-35.69-84.05-58.96c-24.19-22.06-45.59-47.29-63.02-75.02
		c-2.16-3.32-6.35-3.92-9.97-4.19c-16.9-1.72-34.07-7.31-46.67-19.1c-11.14-9.97-17.67-23.88-22.04-37.93
		c-2.27-8.03-3.29-16.37-3.44-24.7c-0.13-0.34-0.4-1-0.54-1.34c-0.29,0.24-0.89,0.72-1.19,0.96c-3.09,0.62-6.26,0.94-9.25,2.02
		c-8.11,2.83-16.56,4.55-25.03,5.95c-7.6,1.19-15.21-0.87-22.44-3.01c-10.09-3.32-19.85-10.76-22.61-21.44
		c-1.79-5.93,0.77-11.94,3.14-17.31c5.68-11.9,15.17-21.56,25.5-29.55c11.66-8.69,25.47-14.35,39.86-16.38
		c1.76-0.23,4.37,0.79,5.54-0.88c-0.38-0.21-1.14-0.63-1.53-0.84c-2.95-0.51-4-3.78-6.57-4.95c-9.17-4.51-18.22-9.44-26.21-15.85
		c-8.29-6.64-13.67-16.87-14.23-27.48c0.38-7.9,3.38-15.53,7.58-22.16c8.08-12.18,23.11-17.66,37.17-18.51
		c18.72,1.24,36.27,9.07,52.3,18.4c13.86,7.81,27.63,16.7,37.58,29.36c1.83,2.33,4.19,4.18,6.33,6.22c0.09,0.09,0.27,0.27,0.36,0.36
		c0.3,0.32,0.91,0.98,1.21,1.3c3.01-22.11,6.31-44.7,16.23-64.96c4.82-9.33,11.77-18.42,22.08-21.94
		c6.93-2.97,14.55-0.26,20.86,2.98c7.24,4.33,13.02,11.23,15.79,19.23c4.01,10.74,5.76,22.34,5.18,33.79
		c-1.55,20.18-5.6,40.06-10.12,59.75c-1.51,4.18-1.45,8.64-2.12,12.97c-0.53,2.08-1.04,4.18-1.43,6.3c0.89-1.29,1.7-2.62,2.43-4
		c1.11-2.89,4.63-3.6,6.14-6.22c10.71-15.6,25.23-29.04,43.02-36.05c5.79-2.06,12.09-5.15,18.31-2.99
		c10.11,3.12,16.77,12.85,19.39,22.68c2.11,7.13-0.47,14.43-3.01,21.08c-6.44,15.96-17.68,29.25-29.04,41.93
		c-5.77,6.86-12.53,12.79-18.66,19.32c-1.4,1.47-2.17,3.38-3.17,5.14c-1.25,0.76-1.19,1.38,0.17,1.87
		c0.27,7.57,4.37,14.15,7.47,20.84c12.51,26.32,30.55,50.64,54.71,67.33c9.48,6.28,19.53,12.65,31,14.3c0.77,1.01,2.32,1.04,2.9-0.2
		c1.63-1.77,3.34-3.5,4.63-5.55c10.3-16.39,25.08-30.06,42.57-38.44c13.2-5.8,27.38-9.51,41.79-10.43c3.39-0.03,6.78-0.03,10.18,0
		c31.81,2.59,62.49,14.49,88.7,32.52c5.72,3.41,10.66,8.28,17.16,10.21c0.81,0.99,2.27,0.99,3.02-0.1
		c7.31-0.51,13.78-4.16,20.45-6.84c22.53-9.54,42.93-23.66,60.77-40.33c6.03-5.96,12.08-11.91,17.94-18.03
		c2.04-1.98,3.03-4.66,4.14-7.19c1.29-0.62,1.3-1.25,0.05-1.92c-1.25-2.44-2.61-4.85-4.6-6.77c-8.95-9.08-13.42-21.47-16.38-33.62
		c-0.67-3.44-3.04-6.53-6.54-7.37c-29.05-8.32-57.86-18.99-82.96-36.11c-14.37-9.99-27.74-21.73-38.09-35.93
		c-10.1-13.28-16.97-28.84-20.96-44.99c-1.3-5.94-2.88-11.9-2.9-18.02c0.07-2.81,0.07-5.62,0.01-8.43
		c0.84-12.9,4.84-25.52,11.08-36.81c6.55-12.47,16.43-22.82,27.05-31.91c23.08-18.77,51.53-30.01,80.56-35.59
		c2.89-0.47,6.02-1.93,6.64-5.1c2.14-10.53,3.85-21.18,6.54-31.6c8.38-34.41,22.25-67.92,43.74-96.27c3.19-4.43,8-8.48,8.15-14.35
		c-0.32-6.46-5.92-10.51-9.95-14.86c-6.71-7.16-15.63-11.7-24.59-15.4c-7.75-2.81-15.78-5.08-24.02-5.77
		c-3.85-0.16-8.01-0.52-11.49,1.46c-8.03,4.36-15.68,9.53-24.26,12.8c-9.75,4.27-20.12,7.13-30.7,8.27
		c-5.21,0.37-10.37-0.83-15.43-1.86c-17.36-3.82-31.64-16.7-39.83-32.14c-2.15-4.62-4.19-9.51-4.54-14.65
		c0.25-8.24,6.41-15.11,13.49-18.66c7.64-3.85,16.42-6.37,25-4.81c7.77,1.15,15.54,2.37,23.39,2.78c5.81,0.88,11.73,0.92,17.53,0.02
		c13.42-0.48,25.86-6.26,37.43-12.62c8.16-4.03,15.97-8.74,23.98-13.04c13.56-6.65,28.17-11.81,43.36-12.54
		c20.21,1.53,39.81,9.53,55.39,22.47c11.83,9.9,22.23,21.58,30.26,34.76c1.99,3.36,5.83,5.68,9.72,4
		c14.98-5.86,29.74-12.56,45.38-16.55c16.35-4.38,33.23-7.43,50.22-6.82c9.38-0.37,18.72,0.81,28,2.05
		c25.96,3.69,51.4,11.02,75.39,21.59c2.27,0.83,4.77,1.57,7.2,1c3.22-2.44,4.61-6.36,6.05-9.98c5.76-14.4,13.22-28.12,22.3-40.69
		C1067.579,44.514,1079.62,33.744,1094.64,30.474 M1071.559,55.444c-7.21,7.53-13.76,15.75-19.19,24.66
		c-2.78,2.73-4.11,6.6-6.25,9.82c-6.01,9.83-10.33,20.57-15.54,30.79c-3.84-0.61-7.1-2.94-10.7-4.24
		c-15.87-6.48-32.21-12.29-49.14-15.14c-6.47,3.58-11.4,9.5-17.07,14.22c-28.25,27.12-50.99,60.64-62.77,98.18
		c-10.45,33.89-13.62,70.72-4.63,105.31c6.15,24.26,19.41,47.17,39.37,62.6c15.43,12.13,34.16,19.5,53.14,23.93
		c44.03,10.38,91.68-0.73,128.53-26.36c28.17-19.61,49.79-46.86,69.32-74.7c2.28-3.08-0.03-6.89-0.64-10.16
		c-15.58-57.34-50.32-109.54-98.24-144.85c-5.29-4.25-11.43-7.4-16.46-11.96c1.9-5.76,5-11.04,8.05-16.25
		c9.16-15.04,22.99-28.03,40.23-32.9c2.67-1.01,5.14,0.85,7.54,1.78c16.23,7.29,32.16,15.95,49.8,19.34
		c14.72,3.21,29.78,5.91,44.91,4.93c8.99-0.74,18.04-3.09,25.63-8.13c5.68-3.63,9.38-9.41,13.35-14.7
		c6.6-9.28,12.66-19.36,14.99-30.65c0.08-3.3-0.47-7.06-3.33-9.14c-3.67-2.63-8.44-2.52-12.75-2.62
		c-11.98-0.33-23.58,3.15-34.99,6.36c-15.16,4.12-29.8,10.33-45.43,12.55c-9.35,1.07-19.25,0.88-27.96-3.06
		c-8.82-4.04-15.44-11.38-23.55-16.52c-6.35-4.4-14.07-7.65-21.93-6.63C1086.309,42.874,1078.059,48.724,1071.559,55.444
		 M700.049,66.914c-11.48,3.55-21.53,10.3-32,15.99c-13.8,7.5-28.47,14.33-44.3,15.8c-9.59,1.09-19.02-1.36-28.42-2.82
		c-6.14-1-12.27-3.31-18.54-2.45c-6.55,2.4-13.39,5.92-16.95,12.21c-2.33,4.64,0.14,9.92,3.29,13.51
		c4.88,5.51,10.67,10.24,17.01,14.01c10.37,6.12,23,8.25,34.79,5.7c18.23-3.76,34.16-13.91,50.08-23.04
		c15.22-8.76,30.9-17.85,48.51-20.6c12.65-1.61,26.37-0.79,37.41,6.2c10.86,6.91,17.66,18.34,23.23,29.61
		c0.8,1.18-0.73,1.88-1.41,2.52c-8.85,6.37-16.75,13.96-23.98,22.09c-21.19,23.97-35.15,53.37-45.57,83.38
		c-1.22,3.79-2.92,7.48-3.44,11.46c-0.2,0.34-0.6,1.02-0.79,1.37c-5.94,18.97-10.55,38.33-14.93,57.71
		c9.86-0.72,19.76-1.18,29.66-1.07c9.19,0.33,18.41,0.8,27.45,2.67c30.05,5.67,57.68,20.12,82.56,37.49
		c21.62,15.07,41.54,32.39,62.14,48.79c0.99,0.75,1.63,1.84,2.04,3.02c-13.97-9.63-27.44-20.03-41.58-29.44
		c-29.31-19.88-60.99-37.67-95.99-44.96c-40.5-8.48-83.85-6.11-122.24,9.91c-17.51,7.45-34.05,17.97-46.56,32.48
		c-1.33,1.65-3,3.17-3.67,5.23c-2.37,2.08-3.82,4.93-5.41,7.6c-9.2,15.74-12.83,34.65-10.01,52.68
		c4.43,29.07,22.9,54.57,46.58,71.34c41.57,29.24,91.51,44.72,141.69,50.22c31.22,3.59,62.83,2.9,94-0.93
		c44.68-5.32,89.01-17.07,128.98-38.05c6.08-3.53,12.71-6.38,18.02-11.05c4.48-1.82,8.24-5,12.23-7.68
		c14.18-10.49,27.68-22.22,38.63-36.1c-3.18-2.81-6.71-5.31-9.13-8.86c-6.24-8.23-8.19-19.1-6.61-29.18
		c1.32-0.07,1.84,0.57,1.58,1.92c-0.09,9.68,5.06,18.88,12.59,24.76c9.22,7.25,21.1,10.56,32.72,10.59
		c4.85,0.07,9.56-1.23,14.38-1.62c-0.19,0.44-0.56,1.32-0.74,1.76c-5.51,3.67-12.01,5.97-18.59,6.65
		c-7.19,0.93-14.28-0.89-21.02-3.19c-5.22,6.82-9.52,14.41-15.17,20.95c-1.4,1.87-3.62,3.55-3.48,6.12
		c-0.83,17.76-3.89,35.3-5.52,52.98c-0.9,6.12-1.95,12.81-6.4,17.47c-2.89,3.33-8.02,3.73-11.87,2.01c-3.44-1.73-6.09-4.65-8.4-7.65
		c-6-8.19-10.41-17.42-16.08-25.79c-3.63,10.98-6.69,22.17-11.27,32.83c-12.69,30.81-32.5,59.74-60.65,78.29
		c-13.64,8.84-28.9,15.51-45,18.09c-28.58,3.39-58.31-7.57-78.34-28.11c-14.5-15.68-23.18-35.81-28.83-56.17
		c-0.37-3.22-4.32-2.7-6.65-2.65c-1.52,1.3-2.06,3.35-2.97,5.06c-1.7,3.96-4.07,7.6-5.59,11.64c1.76,6.29,5.67,11.81,8.62,17.62
		c14.42,25.05,33.01,48.8,58.15,63.78c17.45,10.4,38.46,15.16,58.61,11.82c22.4-3.72,43.61-13.06,62.45-25.59
		c27.07-18.02,49.61-41.92,70.06-67c2.06-2.3,3.48-5.41,6.39-6.78c-0.59,2.21-1.46,4.33-2.35,6.43c-2.51,4.03-4.48,8.37-6.66,12.57
		c24.47,1.54,49.91-0.27,72.62-10.17c31.31-14.62,57.13-39.8,74.46-69.53c30.08-53.51,45.56-115.73,40.91-177.14
		c-1.06-9.41-1.38-19.06-3.96-28.18c-0.12-2.61-0.48-5.2-1.24-7.69c-2.58,2.75-4.18,6.23-6.4,9.26
		c-18.83,27.81-40.21,54.73-67.98,74.12c-16.06,11.33-34.41,19.49-53.71,23.31c-24.67,5.29-50.48,5.9-75.21,0.65
		c-18.3-3.77-36.01-10.96-51.29-21.77c-23.93-16.63-41.19-42.09-48.99-70.06c-8.05-27.76-7.84-57.43-1.98-85.59
		c6.63-29.79,18.86-58.38,36.2-83.51c14.44-21.15,32.56-39.68,52.89-55.2c0.12-0.32,0.34-0.95,0.46-1.26
		c-21.94-4.28-44.49-4.95-66.74-3.35c-27.99,1.88-55.37,8.87-81.85,17.83c-16.18-21.51-37.86-39.89-63.91-47.91
		C734.5,61.474,716.439,61.164,700.049,66.914 M1099.5,102.544c-10.26,8.41-18.14,19.47-24.61,30.96
		c7.23,5.76,15.04,10.8,22.02,16.91c1.42,0.97,2.59,2.7,4.41,2.89c3.59-12.31,9.52-23.76,16.54-34.43c3.34-3.47,6.42-7.21,9.53-10.9
		c-5.95-3.64-11.11-8.4-16.98-12.12C1106.099,95.994,1102.799,100.034,1099.5,102.544 M1547.349,102.234
		c-12.23,13.24-19.37,30.03-26.75,46.22c-6.4,14.86-13.02,29.71-18.03,45.09c-4.37,10.3-7.58,21.08-11.16,31.68
		c-0.27,1.54-1.6,3.53-0.26,4.89c7.08,7.79,17.14,11.64,25.9,17.12c7.53,4.53,14.18,10.54,19.38,17.64
		c3.66,4.63,5.62,10.26,8.75,15.21c0.2,3.83,2.16,7.37,2.8,11.16c1.92,10.68,2.74,21.64,1.37,32.45c-1.99-2.2-1.06-5.37-1.45-8.04
		c-1.43-16.74-7.19-33.86-19.35-45.88c-11.92-11.72-27.74-18.05-40.97-27.97c-12.66-9.7-17.61-25.61-21.77-40.31
		c-3.12-10.17-10.33-19.09-19.49-24.45c-9.49-5.41-20.88-6.86-31.58-5.3c-5.54,1.06-11.53,3.2-14.6,8.26
		c-2.55,3.98-1.81,9.06,0.01,13.17c3.26,7.54,9.31,13.31,14.63,19.39c10.8,12.15,21.99,24.59,28.06,39.91
		c3.97,9.85,4.31,20.67,3.59,31.13c-1.13,21.69-8.86,42.52-19.17,61.45c-7.96,14.88-17.89,28.58-28.3,41.81
		c-1.93,2,0.37,4.47,0.85,6.61c5.14,14.8,8.6,30.38,8.32,46.12c-0.09,17.02-4.74,34.5-15.52,47.93
		c-9.53,12.49-23.91,21.89-39.87,22.87c-21.24,1.78-40.87-8.8-57.77-20.46c-33.36,27.61-69.11,52.6-107.8,72.2
		c-17.6,9.22-36.09,16.54-54.66,23.53c-9.52,2.71-18.94,5.85-28.55,8.26c-1.09,3.36,0.11,6.92,0.18,10.36
		c2.25,38.09,5.36,76.7,17.74,113.06c14.32-9.55,28.6-19.2,43.17-28.39c17.48-11.17,35.24-21.94,52.39-33.64
		c33.33-22.49,65.35-46.92,95.94-73.02c26.99-22.93,52.38-47.65,78.24-71.83c3.21-3.47,7.3-6.14,9.97-10.11
		c4.13-2.71,7.29-6.64,11.03-9.85c7.4-6.94,14.69-13.99,22.01-21.02c14.57-14.14,27.78-29.58,41.16-44.83
		c10.65-11.63,20.34-24.55,33.71-33.25c15.61-10.49,33.56-17.06,48.67-28.37c11.32-8.37,20.49-19.44,27.3-31.73
		c9.76-17.55,14.96-37.15,19.33-56.62c0.89-3.77,1-7.79,2.82-11.29c1.84,1.33,1.34,4.32,2.16,6.35c0.44,4.25,1.01,8.49,1.41,12.76
		c3.34-1.66,6.16-4.15,9.3-6.16c8.12-5.38,16.42-10.53,25.17-14.84c9.58-4.85,19.74-8.52,28.98-14.04
		c6.29-3.74,12.25-8.59,15.68-15.2c2.11-3.91,3.36-8.75,1.65-13.03c-1.68-3.14-4.71-5.49-8.08-6.53
		c-5.59-2.79-11.99-3.31-18.12-3.74c-11.66-0.25-23.89,0-34.6,5.16c-16.19,6.83-30.55,17.64-42.19,30.74
		c-1.62,1.67-2.83,3.98-5.18,4.68c0.46-1.39,1.07-2.73,1.94-3.92c5.45-7.79,11.02-15.54,17.56-22.47c3.32-3.41,5.9-7.43,8.56-11.36
		c6.38-9.34,12.71-18.7,18.75-28.26c4.77-7.77,10.09-15.44,12.64-24.3c1.3-4.41,1.57-9.81-1.7-13.46
		c-3.36-3.17-8.48-2.94-12.68-2.02c-6.05,1.55-11.1,5.44-16.34,8.64c-23.43,15.3-44.27,35.1-58.98,59.02
		c-1.64,2.43-2.62,5.39-4.94,7.29c0.8-5.8,3.54-11.09,5.77-16.44c2.25-4.62,3.03-9.74,4.26-14.68c4.54-19.17,9.94-38.23,11.77-57.91
		c0.43-6.75,0.82-13.75-1.46-20.23c-1.58-4.78-3.75-10.14-8.6-12.39C1555.349,95.314,1550.599,98.774,1547.349,102.234
		 M681.539,119.474c-2.55,1.68-5.65,2.7-7.68,5.06c4.11,0.66,8.27,1.73,12.44,1.63c8.56,2.15,17.32,3.77,25.46,7.34
		c11.3,4.4,21.6,12.16,27.16,23.14c0.99-0.59,1.92-1.27,2.74-2.1c6.77-6.64,14.1-12.72,21.88-18.13c1.68-1.27,3.74-2.14,5.04-3.86
		c-2.89-4.84-6.43-9.51-10.74-13.16c-8.66-10.42-22.47-16.72-36.09-15.42C707.209,105.394,694.089,112.494,681.539,119.474
		 M1382.88,405.704c-25.4,27.87-52.68,53.98-81.09,78.73c15.36,9.43,33.98,16.72,52.19,12.45c16.2-4.19,27.55-18.41,33.86-33.22
		c8.65-20.81,7.63-44.25,2.79-65.87C1387.289,399.394,1385.53,403.184,1382.88,405.704 M243.379,410.274
		c-8.61,6.55-13.28,16.77-17.44,26.47c-7.56,19.57-12.56,40.12-15.71,60.83c-2.22-1.26-3.52-3.54-5.12-5.43
		c-7.28-8.96-14.33-18.28-23.29-25.67c-5.37-4.49-11.57-7.81-17.53-11.43c-12.43-7.32-25.5-14.06-39.73-17.02
		c-12.3-2.26-25.34,0.16-36.27,6.16c-5.57,3.26-10.99,7.94-12.56,14.47c-1.79,8.15,1.61,16.75,7.54,22.4
		c7.22,7.73,17.3,11.53,26.28,16.71c16.69,9.16,32.53,19.81,47.57,31.47c2.31,1.72,3.2,4.72,5.59,6.37c1.54,1.43,3.97,2.46,4.1,4.84
		c-3.93-1.57-7.51-3.9-11.44-5.5c-28.42-11.98-63.65-5.06-85.49,16.7l-0.05,0.63c-4.05,2.77-6.68,7.06-9.48,10.99
		c-2.87,4.71-6.08,10.37-4.34,16.05c1.66,5.07,7.29,6.99,12.05,7.87c24.43,4.04,48.9-1.66,72.99-5.27c1.84-0.34,3.72-0.55,5.59-0.28
		c-0.08,0.41-0.24,1.24-0.31,1.65c-4.8,3.52-10.5,5.53-15.61,8.52c-0.26,1.23-0.38,2.48-0.36,3.76
		c0.53,16.57,7.26,32.72,18.21,45.11c11.94,14.24,28.82,23.82,46.73,28.32c10.96,2.58,22.16,4.21,33.42,4.58
		c-0.09,0.45-0.25,1.36-0.33,1.81c-6.39,1.94-13.12,2.35-19.71,3.22c0.11,1.3,0.94,2.38,1.66,3.44
		c25.7,35.16,56.93,66.4,92.78,91.19c25.95,17.85,53.95,32.65,82.78,45.26c0.42-3.88-0.34-7.73-0.61-11.57
		c-0.44-6.01-0.26-12.04-0.76-18.04c0.36-6.01,0.33-12.04,0.67-18.06c0.22-3.79,1.09-7.55,0.74-11.35
		c-5.42-0.47-10.89,0.2-16.28-0.66c-19.37-2.65-37.56-13.29-48.98-29.21c-10.91-15.13-16.21-33.62-18.33-51.97
		c-2.24-19.28-0.54-39.95,9.39-57.02c1.19-1.7-0.17-3.67-0.61-5.38c-2.47-6.11-3.94-12.57-6.43-18.66
		c-3.38,2.22-5.25,6.33-9.05,7.91c-0.28-1.43,0.31-2.72,1.07-3.88c5.87-9.72,11.9-19.34,18.15-28.82
		c7.4-11.44,16.23-21.84,24.05-32.98c7.22-10.25,12.32-22.5,12.17-35.19c0.03-4.91-2.29-10.67-7.63-11.69
		c-5.97-0.96-12.01,0.93-17.61,2.86c-19.38,7.53-34.68,22.58-47.27,38.71c-6.79,8.45-12.01,17.98-17.86,27.05
		c1.65-6.71,5.59-12.54,7.94-18.99c-31.89,1.24-63.46,9.69-91.86,24.22c-3.29,1.7-6.41,3.85-10.05,4.78
		c2.71-2.7,6.09-4.54,9.18-6.74c16.99-11.69,34.58-22.97,54.14-29.86c13-4.71,27.09-6.32,40.78-4.15
		c0.77-20.07,0.28-40.16,1.06-60.23c0.32-14.11,1.35-28.34-0.88-42.35c-1.09-5.5-2.82-11.11-6.43-15.5
		C259.449,405.624,249.409,405.284,243.379,410.274 M988.99,525.934c1.35,4.04,3.97,7.66,6.6,11c2.05,4.63,5.18,8.68,7.84,12.97
		c1.87,2.31,3.61,5.79,7.05,5.67c2.16-2.73,2.76-6.27,3.59-9.55c1.65-8.5,2.63-17.13,3.18-25.76c0.76-6.18,1.21-12.41,1.36-18.64
		C1009.25,510.334,999.549,518.704,988.99,525.934 M947.839,547.684c-32.45,12.64-66.59,20.79-101.14,25.03
		c-9.83,1.43-19.85,1.37-29.64,2.97c-1.4,3.43-2.48,6.99-3.22,10.63c-1.82,4.62-2.83,9.51-4.1,14.3c-2.13,9.86-4.95,19.64-5.95,29.7
		c4.4,3.94,9.55,6.98,14.85,9.55c6.22,3.11,13.06,4.84,19.9,5.99c21.62,2.55,43.68-3.93,61.76-15.72
		c16.07-10.56,29.25-24.99,40.29-40.62c10.74-15.93,20.18-32.87,27.1-50.82C961,541.534,954.679,545.194,947.839,547.684
		 M703.68,564.984c1.41,4.89,2.92,9.98,5.73,14.25c2.26,5.8,6.12,10.85,10.2,15.5c0.73,0.78,2.18,2.4,3.1,0.88
		c2.7-3.91,6.26-7.38,8.04-11.83c3.67-3.26,6.29-7.91,8.87-12.15C727.62,569.574,715.549,567.794,703.68,564.984 M765.74,574.594
		c0.92,2.9,2.3,5.61,3.66,8.33c6.69,13.83,14.45,27.42,25.09,38.62c0.65-4.78,0.96-9.6,1.76-14.36c1.46-10.8,4.76-21.19,7.69-31.63
		C791.199,575.834,778.469,574.824,765.74,574.594 M738.049,598.634c-0.36,17.01-0.04,34.03-0.54,51.04
		c-0.08,4.26-0.96,8.5-0.6,12.76c-3.25,39.63-9.06,79.2-19.96,117.5c-2.29,8.31-5.48,16.35-7.83,24.62
		c1.24,3.42,3.36,6.44,4.85,9.77c1.59,3.01,2.66,6.38,4.88,9.03c0.31,2.37,1.4,4.52,2.47,6.64c12.89,27.35,31.14,52.16,53.23,72.77
		c17.54,10.51,36.5,18.51,55.77,25.31c20.16,7.56,40.89,13.65,61.99,17.98c25.74,5.03,52.48,6.15,78.2,0.39
		c37.71-7.59,71.89-27.39,101.14-51.87c28.02-23.26,52.99-49.92,76.74-77.44c1.24-1.12-0.32-2.35-0.94-3.24
		c-9.3-11.01-16.98-23.34-23.4-36.21c-18.22-36.07-27.69-76.05-31.69-116.1c-0.59-6.63-0.8-13.28-1.33-19.91
		c-0.67-13.08-0.06-26.18-0.26-39.27c-6.84,2.4-13.22,6.06-20.27,7.92c-13.62,4.23-28.02,5.33-42.21,4.78
		c-0.55,2.46-0.51,4.98-0.57,7.5c-0.51,12.53-2.93,24.89-6.2,36.98c-1.83,3.9-2.69,8.2-4.66,12.06
		c-7.61,17.67-19.72,33.45-35.22,44.91c-12.77,9.38-27.17,17.42-42.98,20.04c-7.61,0.59-15.68,1.14-22.83-2.04
		c-9.75-3.96-18.05-10.65-25.24-18.2c-2.87-3.68-5.99-7.18-8.34-11.22c-1.27-2.06-2.2-4.35-3.8-6.16
		c-39.36,6.3-80.94-10.32-106.55-40.55C756.49,641.164,746.349,620.024,738.049,598.634 M991.429,611.294
		c-7.58,12.13-16.06,23.71-25.59,34.38c-20.48,22.94-46.07,42.52-76.04,50.9c-0.23,0.24-0.7,0.71-0.94,0.95l0.82,0.15
		c1.87,3.33,5.01,5.65,7.81,8.17c9.65,8.18,22.24,13.84,35.11,12.46c8.41-0.67,16.13-4.44,23.46-8.37
		c14.66-8.02,26.79-20.18,35.88-34.12c10.1-15.1,16.31-32.51,19.87-50.24c0.69-3.96,2.12-7.84,1.93-11.9
		c-1.3-0.08-2.58-0.1-3.84-0.07c-4.75-1.17-9.61-1.73-14.37-2.8C994.209,610.734,992.189,609.704,991.429,611.294 M726.68,627.584
		c-23.84,29.79-56.82,51.12-92.07,64.98c-2.22,1.06-5.08,1.24-6.79,3.07c27.11,23.52,51.42,51.02,67.45,83.37
		c0.84,1.58,1.45,3.49,3.09,4.48c4.09-14.68,8.56-29.26,12.16-44.08c6.66-25.91,10.97-52.34,15.32-78.72
		c1.82-12.44,4.29-24.83,4.98-37.4C729.139,624.404,727.899,626.004,726.68,627.584 M314.869,625.734
		c-3.76,9.46-4.43,19.79-4.84,29.86c0.58,21.02,4.58,43.05,17.41,60.27c10.32,14.52,26.45,24.3,43.67,28.32
		c5.7,1.22,11.48,2.98,17.37,2.29c2.28-13.69,6.79-26.88,11.89-39.74c-22.23-6.01-41.76-19.72-57.1-36.64
		c-11.02-11.97-19.56-26.02-26.28-40.79C316.359,628.074,315.969,626.634,314.869,625.734 M481.719,656.674
		c0.12,1.55,0.88,2.94,1.54,4.34c18.62,36.18,7.01,85.33-26.89,108.29c-16.12,11.29-35.81,17.03-55.39,17.69
		c-0.38,42.33,9.11,84.03,20.99,124.43c4.58-2.1,8.41-5.53,13.08-7.46c11.97-5.8,25.65-7.28,38.73-5.46
		c8.71,1.54,17.64,4.6,23.89,11.14c7.01,6.84,9.9,17.9,6.21,27.11c-4.41,11.54-13.93,20.63-24.77,26.22
		c-12.02,6.13-25.86,6.56-39.05,5.8c2.73,7.01,4.86,14.24,7.16,21.41c14.14,43.56,27.87,87.28,43.62,130.3
		c0.54,1.6,1.35,3.17,2.88,4.07c30.75,21.4,56.59,48.87,81.09,76.99c25.3,29.38,48.6,60.42,70.81,92.19
		c4.22,6.34,9.07,12.32,12.82,18.97c-2.97-2.31-5.19-5.38-7.78-8.06c-39.09-44-72.15-93.33-114.93-134.03
		c-25.83-24.59-55.77-45.63-89.72-57.28c-17.45-5.84-35.65-11.01-54.25-10.01c-8.97,0.56-18.78,3.39-24.16,11.14
		c-5.04,7.79-7.05,18-3.61,26.82c5.27,12.8,17.85,20.45,29.78,26.23c16.71,7.86,34.72,12.43,52.68,16.43
		c0.1,0.43,0.31,1.31,0.41,1.75c-9.36,0.67-18.73-0.35-28.08-0.71c-16.71-1.2-34.11-3.72-48.47-12.96
		c-3.19-1.83-5.62-5.42-9.57-5.54c-8.02-0.8-16.4-0.19-23.74,3.37c-6.23,2.68-10.85,7.81-15.35,12.7
		c-6.96,8.04-13.16,17.37-14.84,28.07c-0.99,5.6-0.04,11.43,2.36,16.56c3.89,8.49,9.99,15.9,17.31,21.67
		c14.34,11.63,32.11,18.24,50.03,21.99c8.99,1.88,18.19,2.04,27.31,2.76c-0.02,0.44-0.06,1.34-0.09,1.79
		c-16.27,7.68-35.44,9.32-52.65,3.85c-2.17-0.56-4.45-1.85-6.7-0.95c-9.75,3.26-18.63,8.85-26.22,15.74
		c-10.41,9.72-19.06,22.24-21.19,36.59c-1.36,8.23,0,17.53,5.92,23.79c5.86,6.26,14.54,8.81,22.77,10.08
		c20.67,2.1,41.5-1.57,61.21-7.74c3.67-0.99,7.08-3.15,10.94-3.31c-0.6,3.11-4.33,3.93-6.23,6.18c1.1,2.17,3.27,3.5,5.01,5.14
		c8.37,7.38,17.1,14.36,26.31,20.68c5.44,3.56,10.63,7.73,16.66,10.26c0.88,0.78,1.8,1.55,2.82,2.22
		c26.04,15.03,54.59,26.02,84.37,30.66c24.97,4.13,50.71,2.93,75.37-2.6c29.87-6.62,59.48-18.72,81.93-40.05
		c14.65-13.95,25.21-32.4,28.68-52.41c3.67-18.14,0.89-36.73-2.28-54.71c-8.13-42.38-26.05-81.96-44-120.92
		c-15.1-31.97-29.08-64.47-41.49-97.58c-16.35-42.88-31.32-86.28-47.86-129.09c-2.5-5.86-4.22-12.1-7.32-17.67
		c-0.55-4.81-5.16-9.11-3.2-14.06c6.77-19.72,11.87-40.11,13.95-60.88c2.85-31.49,1.84-63.27-2.29-94.59
		c-1.7-11.25-3.3-22.57-6.46-33.53c-4.15-13.52-8.46-27.05-13.86-40.12c-3.63-2.76-8.35-3.69-12.49-5.5
		C525.209,657.534,503.18,652.794,481.719,656.674 M439.139,679.014c-13.12,12.8-22.94,28.84-28.85,46.17
		c-5.33,14.92-8.01,30.7-8.88,46.49c-0.03,1.98-0.71,4.14,0.37,5.97c4.6-0.21,9.05-1.49,13.54-2.44
		c15.06-3.74,29.9-9.94,41.57-20.39c13.22-11.44,21.13-28.09,23.59-45.23c2.64-17.11,0.61-35.25-6.98-50.89
		C460.419,662.014,449.019,670.044,439.139,679.014 M1337.059,665.004c-2.46,0.53-4.54,2.03-6.73,3.16
		c-4.02,2.2-8.43,3.51-12.51,5.54c-7.49,21.89-12.87,44.58-15.47,67.59c-2.86,24.34-2.48,48.98-0.02,73.33
		c2.3,24.67,5.84,49.39,12.77,73.22c1.57,7.17,3.97,14.15,6.3,21.11c2.61,6.76,4.6,13.85,8.21,20.17c2.68-2.94,4.76-6.34,7.1-9.53
		c12.27-17.18,24.08-34.67,36.2-51.94c1.11,0.32,1.91,1.21,2.76,2c13.09,13.15,24.48,27.92,34.38,43.59
		c20.55,32.61,35.23,68.45,48.59,104.48c13.6,36.26,25.29,73.3,41.37,108.59c13.99,29.77,30.77,59.23,55.76,81.19
		c13.31,11.52,29.43,20.41,47.01,22.99c18.81,3.01,38.03-1.63,55-9.79c32.43-15.23,60.99-37.59,86.53-62.51
		c4.56-4.78,9.68-9.14,13.47-14.58c2.13-1.05,3.46-3.2,5.12-4.85c17.23-19,33.04-39.26,47.72-60.29c1.41-2.14,3.3-4.08,4-6.61
		c-2.27-1.39-5.8-1.48-6.84-4.22c5.62-0.58,11.22,0.63,16.85,0.69c10.33,0.81,20.7,0.69,31.06,0.64
		c14.5-0.36,29.32-3.14,42.06-10.36c7.14-4.18,13.85-9.68,17.8-17.09c4.18-8.19,5.25-18.11,2.1-26.82
		c-4.52-15.16-17.48-27.39-32.79-31.22c-11.28-2.95-23.14-3.55-34.69-2.26c-5.07,2.56-9.91,5.65-15.33,7.46
		c-11.65,4-23.9,6.11-36.17,6.84c0.18-2.98,4.63-3.49,6.76-5.17c13.78-7.65,27.35-16.31,37.99-28.09
		c6.51-7.3,11.85-16.65,11.29-26.74c-0.38-8.77-5.31-16.57-11-22.95c-10.04-10.69-24.79-18.61-39.82-15.94
		c-2.62,4.93-5.24,9.92-9.15,13.98c-7.71,8.41-17.67,14.35-27.92,19.14c-1.32,0.39-2.72,1.55-4.08,0.86
		c-0.77-1.43,0.83-2.49,1.56-3.48c9.94-10.61,21.27-21.21,25.35-35.65c2.38-7.54-0.63-15.53-5.26-21.53
		c-5.17-6.39-12.92-10.2-20.82-11.93c-13.02-2.3-26.57-0.36-38.73,4.68c-16.62,6.61-30.38,18.64-42.11,31.89
		c-45.71,54.69-81.92,117.24-107.11,183.91c-0.75,1.46-0.95,3.65-2.83,4.1c0.12-1.16,0.31-2.29,0.57-3.4
		c9.28-37.1,25.21-72.19,43.95-105.4c-8.92-12.07-17.83-24.16-26.24-36.58c-9.6-13.87-18.33-28.33-27.47-42.48
		c-4.6,4.49-9.48,8.83-15.48,11.36c-14.79,6.95-32.77,4.23-45.97-4.94c-6.39-4.48-12.69-9.91-15.57-17.37
		c-2.81-7.86-1.08-16.85,3.66-23.61c9.25-13.66,24.31-21.94,39.4-27.62c-8.36-17.03-17.32-33.78-26.5-50.38
		c-0.67-2.21-3.02-1.16-4.53-0.7c-13.51,4.64-28.33,5.74-42.26,2.34c-16.53-4.23-31.89-12.84-44.13-24.72
		c-12.85-12.49-21.88-28.8-25.7-46.3c-2.58-10.51-2.33-21.42-2.06-32.15c0.12-4.92,1.34-9.78,0.99-14.71
		C1369.64,662.094,1353.02,661.914,1337.059,665.004 M1395.859,669.564c-0.73,12.02-0.23,24.27,2.98,35.94
		c6.39,22.37,20.35,43.87,41.82,54.19c16.43,8.03,35.6,11.76,53.63,8.03c-1.12-2.65-2.6-5.11-4.13-7.53
		c-18.14-28.29-38.32-56.42-66.2-75.9C1415.26,678.284,1406.049,672.614,1395.859,669.564 M577.689,679.864
		c0.94,3.94,3.02,7.45,4.57,11.17c10.08,25.68,15,53.09,17.31,80.49c0.42,6.25,0.21,12.58,1.41,18.77
		c-1.01,6.94,0.16,13.97-0.7,20.92c-0.83,5.9-0.08,11.9-1.08,17.79c-2.47,30.13-10.2,59.81-22.78,87.3
		c-1.38,2.15,0.4,4.35,1.27,6.32c11.12,21.51,21.28,43.49,31.58,65.39c1.7,3.52,2.79,7.45,5.28,10.52
		c3.54-6.06,6.33-12.52,9.15-18.94c8.67-19.05,15.52-38.89,21.64-58.89c4-13.25,7.38-26.68,10.32-40.2
		c5.82-25.32,10.21-50.99,12.8-76.85c0.81-10.95,1.9-21.94,1.21-32.91c-8.86-13.85-19.26-26.67-29.87-39.21
		C621.719,711.484,601.449,692.964,577.689,679.864 M1281.709,693.474c-29.16,22.48-51.38,52.2-74.89,80.17
		c-1.6,1.56-2.32,3.69-2.06,5.92c0.66,15.25,2.42,30.47,5.61,45.42c4.35,22.14,10.16,44,17.68,65.28c7,19.91,16.04,39.05,26.1,57.59
		c7.78,14.4,16.34,28.38,25.14,42.18c0.7,1.13,2.14,3.56,3.52,1.73c12.13-15.55,24.49-30.95,35.77-47.13
		c-7.39-11.97-14.11-24.45-18.54-37.85c-14.65-40.25-16.79-83.74-15.37-126.17c1.06-23.3,3.41-46.66,8.82-69.4
		c2.37-10.4,5.99-20.45,9.32-30.56C1294.919,683.304,1288.089,688.264,1281.709,693.474 M680.009,786.684
		c0.99,29.5-2.63,58.94-8.41,87.82c-4.05,21.48-9.39,42.71-14.88,63.85c-1.86,4.71-3.15,9.62-4.82,14.4
		c-6.21,19.26-14.17,38.04-24.61,55.42c-1.67,2.78-3.8,5.31-4.92,8.4c2.4,6.49,5.7,12.62,8.36,19.02c2.09,4.15,3.1,9.12,6.82,12.22
		c29.19,25.61,60.09,49.37,93.22,69.68c32.33,19.88,66.78,36.5,102.95,48.11c46.9,15.15,96.9,21.36,146,16.22
		c41.59-4.34,82.36-16.01,120.06-34.08c35.02-16.8,67.28-39.03,96.53-64.52c27.3-23.66,52.02-50.15,75.2-77.81
		c1.84-1.56,0.84-3.73-0.43-5.24c-9.77-13.32-17.89-27.73-26.34-41.87c-2.85-6.25-6.37-12.18-9.26-18.41
		c-19.28-39.62-32.39-82.41-37.01-126.28c-1.15-8.94-0.98-17.97-1.93-26.91c-27.21,32.27-53.71,65.26-83.4,95.32
		c-25.82,25.86-54.46,49.73-87.85,65.15c-35.75,16.9-76.28,21.9-115.4,18.01c-41.47-4.05-81.67-17.33-118.79-35.98
		c-5.41-2.86-11-5.45-16.05-8.92c-13.16-10.39-25.01-22.42-35.26-35.69c-11.71-15.57-21.63-32.44-29.95-50.04
		c-5.36-9.27-11.05-18.35-16.56-27.52C688.789,800.294,685.159,792.944,680.009,786.684 M1517.839,842.664
		c-7.32,4.9-13.93,11.28-17.8,19.29c-3,6.05-3.56,13.6-0.34,19.69c3.17,6.33,9.37,10.51,15.75,13.18c9.75,4.11,21.56,3.93,30.6-1.89
		c3.92-2.56,8.37-5.28,10.63-9.46c-3.25-7.4-7.92-14.15-11.47-21.43c-4.91-8.56-8.97-17.57-13.81-26.16
		C1526.439,837.024,1522.109,840.024,1517.839,842.664 M442.109,911.994c-6.03,1.6-12.19,3.37-17.46,6.78
		c0.3,4.09,2.12,7.88,3.16,11.82c3.51,10.21,6.25,20.71,10.23,30.75c5.71,1.67,11.78,1.75,17.68,1.4
		c10.98-0.9,20.48-7.51,28.07-15.07c4.93-5.55,9.73-12.28,9.31-20.08c0.24-6.43-4.94-11.5-10.4-14
		C470.009,907.844,455.339,908.624,442.109,911.994z"/>
	<path fill="#DF9A3F" stroke="#DF9A3F" d="M1071.559,55.444c6.5-6.72,14.75-12.57,24.29-13.54c7.86-1.02,15.58,2.23,21.93,6.63
		c8.11,5.14,14.73,12.48,23.55,16.52c8.71,3.94,18.61,4.13,27.96,3.06c15.63-2.22,30.27-8.43,45.43-12.55
		c11.41-3.21,23.01-6.69,34.99-6.36c4.31,0.1,9.08-0.01,12.75,2.62c2.86,2.08,3.41,5.84,3.33,9.14c-9.94-0.22-20.05-1.6-29.83,0.85
		c-10.62,2.11-20.58,6.41-30.51,10.56c-11.5,5.16-23.13,10.77-35.84,12c-6.61,0.66-13.13-1.18-19.29-3.36
		c-11.34-4.38-21.53-11.14-32.32-16.64c-6.7-2.99-13.72-6.44-21.26-5.72c-13.62,1.25-25.89,8.27-36.56,16.44
		c-2.51,1.8-4.72,4.28-7.81,5.01C1057.799,71.194,1064.349,62.974,1071.559,55.444z"/>
	<path fill="#FCE6E3" stroke="#FCE6E3" d="M1156.429,53.944c4.17-0.41,8.4-0.39,12.59-0.01
		C1164.849,54.694,1160.589,54.694,1156.429,53.944z"/>
	<path fill="#BC791C" stroke="#BC791C" d="M1060.179,75.094c10.67-8.17,22.94-15.19,36.56-16.44c7.54-0.72,14.56,2.73,21.26,5.72
		c10.79,5.5,20.98,12.26,32.32,16.64c6.16,2.18,12.68,4.02,19.29,3.36c12.71-1.23,24.34-6.84,35.84-12
		c9.93-4.15,19.89-8.45,30.51-10.56c9.78-2.45,19.89-1.07,29.83-0.85c-2.33,11.29-8.39,21.37-14.99,30.65
		c-3.97,5.29-7.67,11.07-13.35,14.7c-7.59,5.04-16.64,7.39-25.63,8.13c-15.13,0.98-30.19-1.72-44.91-4.93
		c-17.64-3.39-33.57-12.05-49.8-19.34c-2.4-0.93-4.87-2.79-7.54-1.78c-17.24,4.87-31.07,17.86-40.23,32.9
		c-3.05,5.21-6.15,10.49-8.05,16.25c5.03,4.56,11.17,7.71,16.46,11.96c47.92,35.31,82.66,87.51,98.24,144.85
		c0.61,3.27,2.92,7.08,0.64,10.16c-19.53,27.84-41.15,55.09-69.32,74.7c-36.85,25.63-84.5,36.74-128.53,26.36
		c-18.98-4.43-37.71-11.8-53.14-23.93c-19.96-15.43-33.22-38.34-39.37-62.6c-8.99-34.59-5.82-71.42,4.63-105.31
		c11.78-37.54,34.52-71.06,62.77-98.18c5.67-4.72,10.6-10.64,17.07-14.22c16.93,2.85,33.27,8.66,49.14,15.14
		c3.6,1.3,6.86,3.63,10.7,4.24c5.21-10.22,9.53-20.96,15.54-30.79c2.14-3.22,3.47-7.09,6.25-9.82
		C1055.459,79.374,1057.669,76.894,1060.179,75.094 M973.919,198.894c-14.56,5.38-27.03,15.15-38.11,25.82
		c-2.91,2.85-6.5,5.17-8.37,8.91c3.11-1.52,5.63-3.91,8.37-5.97c12.2-9.02,26.56-15.69,41.83-16.95
		c11.72-0.71,24.07,0.52,34.46,6.41c10.33,5.59,19.77,12.75,28.19,20.92c2.57,2.43,4.25,5.82,7.41,7.59
		c-1.04-11.58-6.13-22.61-13.35-31.63C1019.99,196.984,994.579,191.214,973.919,198.894 M957.26,260.164
		c-10.31,9.78-17.39,22.53-22.09,35.84c-4.15,12.84-6.34,27.1-2.02,40.19c2.9,9.1,10.29,16.64,19.41,19.55
		c2.04,0.56,4.24,1.86,6.4,1.06c8.51,4.34,18.33,5.33,27.76,5.2c9.48,0.19,19.12-2.02,27.44-6.59c1.47,2.17,3.87-0.01,5.64-0.61
		c12.29-5.71,21.78-16.98,24.88-30.22c5.65-25.62-6.02-53.63-27.28-68.67c-8.96-6.09-19.79-9.42-30.65-8.67
		C975.549,246.864,964.969,252.324,957.26,260.164z"/>
	<path fill="#FEFFFF" stroke="#FEFFFF" d="M700.049,66.914c16.39-5.75,34.45-5.44,51.02-0.64c26.05,8.02,47.73,26.4,63.91,47.91
		c26.48-8.96,53.86-15.95,81.85-17.83c22.25-1.6,44.8-0.93,66.74,3.35c-0.12,0.31-0.34,0.94-0.46,1.26
		c-20.33,15.52-38.45,34.05-52.89,55.2c-17.34,25.13-29.57,53.72-36.2,83.51c-5.86,28.16-6.07,57.83,1.98,85.59
		c7.8,27.97,25.06,53.43,48.99,70.06c15.28,10.81,32.99,18,51.29,21.77c24.73,5.25,50.54,4.64,75.21-0.65
		c19.3-3.82,37.65-11.98,53.71-23.31c27.77-19.39,49.15-46.31,67.98-74.12c2.22-3.03,3.82-6.51,6.4-9.26
		c0.76,2.49,1.12,5.08,1.24,7.69c0.46,11.4,2.27,22.73,1.81,34.15c1.05,43.96-7.66,88.62-28.28,127.68
		c-7.99,15.04-17.84,29.09-28.96,41.99c-4.18,4.18-7.8,8.87-11.92,13.09c-11.68,10.76-23.51,21.48-36.96,30.03
		c-18.58,12.82-39.9,21.83-62.16,25.71c-3.6,0.41-7.55,1.85-10.9-0.2c0.89-2.1,1.76-4.22,2.35-6.43c-2.91,1.37-4.33,4.48-6.39,6.78
		c-20.45,25.08-42.99,48.98-70.06,67c-18.84,12.53-40.05,21.87-62.45,25.59c-20.15,3.34-41.16-1.42-58.61-11.82
		c-25.14-14.98-43.73-38.73-58.15-63.78c-2.95-5.81-6.86-11.33-8.62-17.62c1.52-4.04,3.89-7.68,5.59-11.64
		c0.91-1.71,1.45-3.76,2.97-5.06c2.33-0.05,6.28-0.57,6.65,2.65c5.65,20.36,14.33,40.49,28.83,56.17
		c20.03,20.54,49.76,31.5,78.34,28.11c16.1-2.58,31.36-9.25,45-18.09c28.15-18.55,47.96-47.48,60.65-78.29
		c4.58-10.66,7.64-21.85,11.27-32.83c5.67,8.37,10.08,17.6,16.08,25.79c2.31,3,4.96,5.92,8.4,7.65c3.85,1.72,8.98,1.32,11.87-2.01
		c4.45-4.66,5.5-11.35,6.4-17.47c1.63-17.68,4.69-35.22,5.52-52.98c-0.14-2.57,2.08-4.25,3.48-6.12
		c5.65-6.54,9.95-14.13,15.17-20.95c6.74,2.3,13.83,4.12,21.02,3.19c6.58-0.68,13.08-2.98,18.59-6.65c0.18-0.44,0.55-1.32,0.74-1.76
		c-4.82,0.39-9.53,1.69-14.38,1.62c-11.62-0.03-23.5-3.34-32.72-10.59c-7.53-5.88-12.68-15.08-12.59-24.76
		c0.26-1.35-0.26-1.99-1.58-1.92c-1.58,10.08,0.37,20.95,6.61,29.18c2.42,3.55,5.95,6.05,9.13,8.86
		c-10.95,13.88-24.45,25.61-38.63,36.1c-3.99,2.68-7.75,5.86-12.23,7.68c-10.22,2.79-19.88,7.24-30.09,10.04
		c-17.26,5.63-34.99,9.67-52.8,13.09c-26.13,4.79-52.51,8.33-79.04,9.91c-8.7-0.09-17.35,1.07-26.05,0.84
		c-39.06-0.27-78.49-5.04-115.37-18.4c-29.06-10.53-57.19-25.74-78.57-48.43c-15.6-16.33-26.83-37.09-30.45-59.49
		c-2.66-12.97-1.25-26.25-1.48-39.37c0.67-2.06,2.34-3.58,3.67-5.23c12.51-14.51,29.05-25.03,46.56-32.48
		c38.39-16.02,81.74-18.39,122.24-9.91c35,7.29,66.68,25.08,95.99,44.96c14.14,9.41,27.61,19.81,41.58,29.44
		c-0.41-1.18-1.05-2.27-2.04-3.02c-20.6-16.4-40.52-33.72-62.14-48.79c-24.88-17.37-52.51-31.82-82.56-37.49
		c-9.04-1.87-18.26-2.34-27.45-2.67c-8.39-18.22-10.85-38.39-13.94-58.01c0.52-3.98,2.22-7.67,3.44-11.46
		c10.42-30.01,24.38-59.41,45.57-83.38c7.23-8.13,15.13-15.72,23.98-22.09c0.68-0.64,2.21-1.34,1.41-2.52
		c-5.57-11.27-12.37-22.7-23.23-29.61c-11.04-6.99-24.76-7.81-37.41-6.2c-17.61,2.75-33.29,11.84-48.51,20.6
		c-15.92,9.13-31.85,19.28-50.08,23.04c-11.79,2.55-24.42,0.42-34.79-5.7c-6.34-3.77-12.13-8.5-17.01-14.01
		c-3.15-3.59-5.62-8.87-3.29-13.51c3.56-6.29,10.4-9.81,16.95-12.21c6.27-0.86,12.4,1.45,18.54,2.45c9.4,1.46,18.83,3.91,28.42,2.82
		c15.83-1.47,30.5-8.3,44.3-15.8C678.519,77.214,688.569,70.464,700.049,66.914 M757.359,192.224
		c-11.04,4.86-19.2,14.37-25.74,24.22c-3.42,5.79-7.07,11.64-8.78,18.21c3.1-3.34,4.7-7.75,7.66-11.22
		c8.02-11.08,21.5-18.23,35.28-17.75c7.87-0.02,15.29,3.63,21.15,8.69c9.77,8.45,16.11,20,21.45,31.57
		c0.32,0.19,0.97,0.57,1.29,0.77c-0.94-11.62-2.56-23.35-6.84-34.25c-3.18-8.06-9.04-15.34-17.04-18.96
		C776.979,189.544,766.379,188.074,757.359,192.224 M755.069,224.074c-15.35,3.66-27.8,15.66-33.97,29.94
		c-4.27,9.72-5.67,21.1-2.03,31.24c3.19,8.23,9.35,15.88,17.63,19.29c-0.01-1.85-1.28-3.22-2.28-4.63c-3.75-4.97-5.86-11-7.09-17.05
		c0.11-1.72,0.16-3.46,0.54-5.14c3.63-12.1,11.03-23.32,21.82-30.15c8.35-5.58,18.87-7.29,28.67-5.5c4.39,0.89,8.16,3.6,12.59,4.36
		c5.96,7.41,9.2,16.76,9.98,26.19c0.7,9.57-0.21,19.69-5.02,28.19c-3.27,5.73-9.29,9.56-15.82,10.32c-0.01,0.31-0.02,0.94-0.03,1.26
		c5.22-0.15,10.47-1.7,14.85-4.59c6.3-4.33,9.73-11.68,11.05-19.03c2.3-13.64-0.46-27.74-6.2-40.21
		c-4.17-8.82-10.22-17.33-19.11-21.86C772.74,222.984,763.569,222.314,755.069,224.074 M761.049,250.034
		c-6.48,1.36-12.4,5.45-15.72,11.21c-4.54,7.39-4.53,17.33,0.01,24.72c4.29,7.39,12.88,12.07,21.42,11.66
		c7.45-0.03,14.53-4.1,18.9-10.03c6.83-9.45,5.57-23.93-3.3-31.66C776.769,250.594,768.569,248.484,761.049,250.034
		 M651.549,348.474c-5.17,2.64-9.33,6.82-14.49,9.46c-9.12,4.9-16.58,12.81-20.81,22.27c-3.12,6.26-3.05,13.91-0.33,20.29
		c-2.88,11.71-2.16,25.01,4.57,35.34c5.13,8.07,13.66,13.44,22.57,16.48c10.13,3.69,20.98,4.39,31.64,5.15
		c12.98-0.39,26.22-2.07,38.04-7.8c10.96-5.17,20.32-14.73,23.37-26.66c2.6-9.63,2.24-20.24-1.32-29.55
		c1.69-12.59-2.42-25.69-10.59-35.34c-8.5-10.13-21.39-15.93-34.39-17.29C676.659,339.174,663.18,342.314,651.549,348.474z"/>
	<path fill="#FCE6E3" stroke="#FCE6E3" d="M606.449,82.914c5.83-0.35,11.7-0.38,17.53,0.02
		C618.18,83.834,612.259,83.794,606.449,82.914z"/>
	<path fill="#D8CF6F" stroke="#D8CF6F" d="M1099.5,102.544c3.3-2.51,6.6-6.55,10.91-6.69c5.87,3.72,11.03,8.48,16.98,12.12
		c-3.11,3.69-6.19,7.43-9.53,10.9C1110.819,114.554,1104.719,108.914,1099.5,102.544z"/>
	<path fill="#FEFFFF" stroke="#FEFFFF" d="M1547.349,102.234c3.25-3.46,8-6.92,13-5.18c4.85,2.25,7.02,7.61,8.6,12.39
		c2.28,6.48,1.89,13.48,1.46,20.23c-1.83,19.68-7.23,38.74-11.77,57.91c-1.23,4.94-2.01,10.06-4.26,14.68
		c-2.23,5.35-4.97,10.64-5.77,16.44c2.32-1.9,3.3-4.86,4.94-7.29c14.71-23.92,35.55-43.72,58.98-59.02
		c5.24-3.2,10.29-7.09,16.34-8.64c4.2-0.92,9.32-1.15,12.68,2.02c3.27,3.65,3,9.05,1.7,13.46c-2.55,8.86-7.87,16.53-12.64,24.3
		c-6.04,9.56-12.37,18.92-18.75,28.26c-2.66,3.93-5.24,7.95-8.56,11.36c-6.54,6.93-12.11,14.68-17.56,22.47
		c-0.87,1.19-1.48,2.53-1.94,3.92c2.35-0.7,3.56-3.01,5.18-4.68c11.64-13.1,26-23.91,42.19-30.74c10.71-5.16,22.94-5.41,34.6-5.16
		c6.13,0.43,12.53,0.95,18.12,3.74c-0.8,4.85-2.09,9.85-5.47,13.59c-6.62,7.52-15.89,11.89-24.72,16.23
		c-15.65,7.37-29.36,18.02-43.92,27.22c-0.82-2.03-0.32-5.02-2.16-6.35c-1.82,3.5-1.93,7.52-2.82,11.29
		c-4.37,19.47-9.57,39.07-19.33,56.62c-6.81,12.29-15.98,23.36-27.3,31.73c-15.11,11.31-33.06,17.88-48.67,28.37
		c-13.37,8.7-23.06,21.62-33.71,33.25c-13.38,15.25-26.59,30.69-41.16,44.83c-7.32,7.03-14.61,14.08-22.01,21.02
		c-3.74,3.21-6.9,7.14-11.03,9.85c-6.95,3.4-12.57,8.85-18.87,13.24c-28.88,21.98-59.2,42.03-90.32,60.68
		c-16.75,9.9-33.86,19.16-51.34,27.7c-15.97,7.88-31.84,16.09-48.49,22.45c-11.93,4.58-24.83,7.61-37.65,5.96
		c-7.2-1.21-12.11-7.6-15.12-13.78c-4.15-9.8-6.05-20.42-7.29-30.94c18.57-6.99,37.06-14.31,54.66-23.53
		c38.69-19.6,74.44-44.59,107.8-72.2c16.9,11.66,36.53,22.24,57.77,20.46c15.96-0.98,30.34-10.38,39.87-22.87
		c10.78-13.43,15.43-30.91,15.52-47.93c0.28-15.74-3.18-31.32-8.32-46.12c-0.48-2.14-2.78-4.61-0.85-6.61
		c10.41-13.23,20.34-26.93,28.3-41.81c10.31-18.93,18.04-39.76,19.17-61.45c0.72-10.46,0.38-21.28-3.59-31.13
		c-6.07-15.32-17.26-27.76-28.06-39.91c-5.32-6.08-11.37-11.85-14.63-19.39c-1.82-4.11-2.56-9.19-0.01-13.17
		c3.07-5.06,9.06-7.2,14.6-8.26c10.7-1.56,22.09-0.11,31.58,5.3c9.16,5.36,16.37,14.28,19.49,24.45
		c4.16,14.7,9.11,30.61,21.77,40.31c13.23,9.92,29.05,16.25,40.97,27.97c12.16,12.02,17.92,29.14,19.35,45.88
		c0.39,2.67-0.54,5.84,1.45,8.04c1.37-10.81,0.55-21.77-1.37-32.45c-0.64-3.79-2.6-7.33-2.8-11.16c1.17-6.02-0.55-12.06-2.08-17.85
		c-2.5-8.94-7.99-17.06-15.67-22.32c-8.17-5.66-16.36-12.54-19.8-22.17c-3.07-7.72-4.07-16.02-5.06-24.2
		c5.01-15.38,11.63-30.23,18.03-45.09C1527.979,132.264,1535.12,115.474,1547.349,102.234z"/>
	<path fill="#F9F6B8" stroke="#F9F6B8" d="M1074.89,133.504c6.47-11.49,14.35-22.55,24.61-30.96c5.22,6.37,11.32,12.01,18.36,16.33
		c-7.02,10.67-12.95,22.12-16.54,34.43c-1.82-0.19-2.99-1.92-4.41-2.89C1089.929,144.304,1082.12,139.264,1074.89,133.504z"/>
	<path fill="#D8CF6F" stroke="#D8CF6F" d="M681.539,119.474c12.55-6.98,25.67-14.08,40.21-15.5c13.62-1.3,27.43,5,36.09,15.42
		c-12.07-2.72-24.56-3.67-36.88-2.42c-9.37,1.26-18.46,3.92-27.58,6.34c-2.48,0.63-4.77,1.78-7.08,2.85
		c-4.17,0.1-8.33-0.97-12.44-1.63C675.889,122.174,678.99,121.154,681.539,119.474z"/>
	<path fill="#F9F6B8" stroke="#F9F6B8" d="M693.379,123.314c9.12-2.42,18.21-5.08,27.58-6.34c12.32-1.25,24.81-0.3,36.88,2.42
		c4.31,3.65,7.85,8.32,10.74,13.16c-1.3,1.72-3.36,2.59-5.04,3.86c-7.78,5.41-15.11,11.49-21.88,18.13
		c-0.82,0.83-1.75,1.51-2.74,2.1c-5.56-10.98-15.86-18.74-27.16-23.14c-8.14-3.57-16.9-5.19-25.46-7.34
		C688.609,125.094,690.899,123.944,693.379,123.314z"/>
	<path opacity="0.71" fill="#6D5641" stroke="#6D5641" enable-background="new    " d="M1197.609,126.634
		c3.08-0.11,6.16-0.08,9.25,0.02c-2.19,1.93-6.1,0.69-8.94,0.79L1197.609,126.634z"/>
	<path fill="#B19880" stroke="#B19880" d="M1111.39,163.614c-1.1-0.75-1.11-2.23,0-2.96l0.59,0.81
		C1111.829,162.004,1111.539,163.074,1111.39,163.614z"/>
	<path fill="#FEFFFF" stroke="#FEFFFF" d="M1568.37,178.294c-1.82-0.2-0.29-2.29,0.35-2.99l0.69,0.17
		C1569.699,176.714,1569.349,177.654,1568.37,178.294z"/>
	<path fill="#693A0C" stroke="#693A0C" d="M757.359,192.224c9.02-4.15,19.62-2.68,28.43,1.28c8,3.62,13.86,10.9,17.04,18.96
		c4.28,10.9,5.9,22.63,6.84,34.25c-0.32-0.2-0.97-0.58-1.29-0.77c-5.34-11.57-11.68-23.12-21.45-31.57
		c-5.86-5.06-13.28-8.71-21.15-8.69c-13.78-0.48-27.26,6.67-35.28,17.75c-2.96,3.47-4.56,7.88-7.66,11.22
		c1.71-6.57,5.36-12.42,8.78-18.21C738.159,206.594,746.319,197.084,757.359,192.224z"/>
	<path fill="#E3E9EE" stroke="#E3E9EE" d="M1491.409,225.224c3.58-10.6,6.79-21.38,11.16-31.68c0.99,8.18,1.99,16.48,5.06,24.2
		c3.44,9.63,11.63,16.51,19.8,22.17c7.68,5.26,13.17,13.38,15.67,22.32c1.53,5.79,3.25,11.83,2.08,17.85
		c-3.13-4.95-5.09-10.58-8.75-15.21c-5.2-7.1-11.85-13.11-19.38-17.64c-8.76-5.48-18.82-9.33-25.9-17.12
		C1489.809,228.754,1491.14,226.764,1491.409,225.224z"/>
	<path fill="#693A0C" stroke="#693A0C" d="M973.919,198.894c20.66-7.68,46.07-1.91,60.43,15.1c7.22,9.02,12.31,20.05,13.35,31.63
		c-3.16-1.77-4.84-5.16-7.41-7.59c-8.42-8.17-17.86-15.33-28.19-20.92c-10.39-5.89-22.74-7.12-34.46-6.41
		c-15.27,1.26-29.63,7.93-41.83,16.95c-2.74,2.06-5.26,4.45-8.37,5.97c1.87-3.74,5.46-6.06,8.37-8.91
		C946.89,214.044,959.359,204.274,973.919,198.894z"/>
	<path fill="#D3C5B8" stroke="#D3C5B8" d="M1636.709,199.594c-2.09,0.04-0.33-2.42,0.99-1.89l0.32,0.77
		C1637.699,198.754,1637.039,199.314,1636.709,199.594z"/>
	<path fill="#E3E9EE" stroke="#E3E9EE" d="M1683.89,212.704c3.37,1.04,6.4,3.39,8.08,6.53c1.71,4.28,0.46,9.12-1.65,13.03
		c-3.43,6.61-9.39,11.46-15.68,15.2c-9.24,5.52-19.4,9.19-28.98,14.04c-8.75,4.31-17.05,9.46-25.17,14.84
		c-3.14,2.01-5.96,4.5-9.3,6.16c-0.4-4.27-0.97-8.51-1.41-12.76c14.56-9.2,28.27-19.85,43.92-27.22c8.83-4.34,18.1-8.71,24.72-16.23
		C1681.799,222.554,1683.089,217.554,1683.89,212.704z"/>
	<path fill="#FEFFFF" stroke="#FEFFFF" d="M1484.459,221.844c0.6-0.23,1.8-0.68,2.39-0.91
		C1487.63,223.174,1484.799,224.664,1484.459,221.844z"/>
	<path fill="#693A0C" stroke="#693A0C" d="M755.069,224.074c8.5-1.76,17.67-1.09,25.58,2.63c8.89,4.53,14.94,13.04,19.11,21.86
		c5.74,12.47,8.5,26.57,6.2,40.21c-1.32,7.35-4.75,14.7-11.05,19.03c-4.38,2.89-9.63,4.44-14.85,4.59c0.01-0.32,0.02-0.95,0.03-1.26
		c6.53-0.76,12.55-4.59,15.82-10.32c4.81-8.5,5.72-18.62,5.02-28.19c-0.78-9.43-4.02-18.78-9.98-26.19
		c-4.9-6.63-12.01-11.58-19.81-14.18c-11.43-3.36-23.36,2.37-31.47,10.29c-10.83,10.12-14.92,25.95-12.34,40.32
		c1.23,6.05,3.34,12.08,7.09,17.05c1,1.41,2.27,2.78,2.28,4.63c-8.28-3.41-14.44-11.06-17.63-19.29
		c-3.64-10.14-2.24-21.52,2.03-31.24C727.269,239.734,739.719,227.734,755.069,224.074z"/>
	<path fill="#E3E9EE" stroke="#E3E9EE" d="M739.669,242.544c8.11-7.92,20.04-13.65,31.47-10.29c7.8,2.6,14.91,7.55,19.81,14.18
		c-4.43-0.76-8.2-3.47-12.59-4.36c-9.8-1.79-20.32-0.08-28.67,5.5c-10.79,6.83-18.19,18.05-21.82,30.15
		c-0.38,1.68-0.43,3.42-0.54,5.14C724.75,268.494,728.839,252.664,739.669,242.544z"/>
	<path fill="#693A0C" stroke="#693A0C" d="M957.26,260.164c7.71-7.84,18.29-13.3,29.49-12.92c10.86-0.75,21.69,2.58,30.65,8.67
		c21.26,15.04,32.93,43.05,27.28,68.67c-3.1,13.24-12.59,24.51-24.88,30.22c-1.77,0.6-4.17,2.78-5.64,0.61
		c17.96-15.57,24.56-42.45,16.5-64.71c-0.93-2.57-2.22-4.98-3.65-7.28c-5.89-11.07-15.67-20.49-27.7-24.46
		c-9.27-3-19.35-0.94-27.85,3.39c-17.2,8.22-28.8,25.85-31.77,44.42c-2.09,8.72-2.36,17.92-0.73,26.74
		c1.37,6.03,4.05,11.95,8.6,16.26c3.2,3.2,7.52,4.83,11.4,7.03c-2.16,0.8-4.36-0.5-6.4-1.06c-9.12-2.91-16.51-10.45-19.41-19.55
		c-4.32-13.09-2.13-27.35,2.02-40.19C939.87,282.694,946.949,269.944,957.26,260.164z"/>
	<path fill="#7D3F2F" stroke="#7D3F2F" d="M761.049,250.034c7.52-1.55,15.72,0.56,21.31,5.9c8.87,7.73,10.13,22.21,3.3,31.66
		c-4.37,5.93-11.45,10-18.9,10.03c-8.54,0.41-17.13-4.27-21.42-11.66c-4.54-7.39-4.55-17.33-0.01-24.72
		C748.649,255.484,754.569,251.394,761.049,250.034 M753.259,255.184c-3.46,2.67-3.49,7.69-1.65,11.32
		c-2.72-0.64-2.54,3.27-2.87,5.02c-1.46,9.43,6.45,18.83,15.93,19.08c8.09,0.72,16.27-5.09,17.92-13.1
		c0.64-4.34,0.44-9.08-1.95-12.9c-3.01-5.12-8.77-8.68-14.83-8.08C762.68,253.094,756.909,251.904,753.259,255.184z"/>
	<path fill="#E3E9EE" stroke="#E3E9EE" d="M698.969,251.854c0.19-0.35,0.59-1.03,0.79-1.37c3.09,19.62,5.55,39.79,13.94,58.01
		c-9.9-0.11-19.8,0.35-29.66,1.07C688.419,290.184,693.029,270.824,698.969,251.854z"/>
	<path fill="#FFFFFF" stroke="#FFFFFF" d="M753.259,255.184c3.65-3.28,9.42-2.09,12.55,1.34c1.19,3.37,2.01,7.57-0.77,10.42
		c-3.37,4.32-10.13,3.56-13.43-0.44C749.769,262.874,749.799,257.854,753.259,255.184z"/>
	<path fill="#290C0B" stroke="#290C0B" d="M765.81,256.524c6.06-0.6,11.82,2.96,14.83,8.08c2.39,3.82,2.59,8.56,1.95,12.9
		c-1.65,8.01-9.83,13.82-17.92,13.1c-9.48-0.25-17.39-9.65-15.93-19.08c0.33-1.75,0.15-5.66,2.87-5.02c3.3,4,10.06,4.76,13.43,0.44
		C767.819,264.094,767,259.894,765.81,256.524z"/>
	<path fill="#E3E9EE" stroke="#E3E9EE" d="M971.459,262.354c8.5-4.33,18.58-6.39,27.85-3.39c12.03,3.97,21.81,13.39,27.7,24.46
		c-3.26-2.42-6.16-5.28-9.48-7.6c-6.77-4.31-14.86-6.58-22.88-6.14c-18.52,0.86-36.76,10.06-47.66,25.2
		c-2.73,3.77-4.87,7.92-7.3,11.89C942.659,288.204,954.26,270.574,971.459,262.354z"/>
	<path fill="#FFFFFF" stroke="#FFFFFF" d="M946.99,294.884c10.9-15.14,29.14-24.34,47.66-25.2c8.02-0.44,16.11,1.83,22.88,6.14
		c3.32,2.32,6.22,5.18,9.48,7.6c1.43,2.3,2.72,4.71,3.65,7.28c8.06,22.26,1.46,49.14-16.5,64.71c-8.32,4.57-17.96,6.78-27.44,6.59
		c-9.43,0.13-19.25-0.86-27.76-5.2c-3.88-2.2-8.2-3.83-11.4-7.03c-4.55-4.31-7.23-10.23-8.6-16.26c-1.63-8.82-1.36-18.02,0.73-26.74
		C942.12,302.804,944.26,298.654,946.99,294.884 M979.049,286.024c-13.72,3.24-23.6,17.4-21.91,31.38
		c1.1,12.64,11.19,23.78,23.72,25.94c10.61,2.23,22.23-2.18,28.77-10.8c6.05-7.63,7.7-18.32,4.64-27.51
		c-2.01-5.96-6.04-11.18-11.16-14.8C996.179,285.444,987.189,284.034,979.049,286.024z"/>
	<path fill="#7D3F2F" stroke="#7D3F2F" d="M979.049,286.024c8.14-1.99,17.13-0.58,24.06,4.21c5.12,3.62,9.15,8.84,11.16,14.8
		c3.06,9.19,1.41,19.88-4.64,27.51c-6.54,8.62-18.16,13.03-28.77,10.8c-12.53-2.16-22.62-13.3-23.72-25.94
		C955.449,303.424,965.329,289.264,979.049,286.024 M968.659,294.554c-1.89,3.15-1.56,7.07-0.27,10.38l-0.64-0.32
		c-4.64,7.35-2.95,17.8,3.07,23.91c5.11,5.64,13.51,8.27,20.88,6.05c5-1.22,9.2-4.65,12.16-8.78c5.62-8.19,4.06-20.42-3.38-26.99
		c-3.78-3.33-8.82-5.86-13.98-5.1l0.19,0.97c-1.5-1.53-2.99-3.14-4.9-4.13C977.25,288.424,971.099,290.054,968.659,294.554z"/>
	<path fill="#FFFFFF" stroke="#FFFFFF" d="M968.659,294.554c2.44-4.5,8.59-6.13,13.13-4.01c1.91,0.99,3.4,2.6,4.9,4.13
		c1.12,4.25,1.33,9.43-2.31,12.58c-4.63,4.56-12.56,2.85-15.99-2.32C967.099,301.624,966.77,297.704,968.659,294.554z"/>
	<path fill="#FEFFFF" stroke="#FEFFFF" d="M1611.75,294.294c-0.08-1.5-0.63-3.49,0.76-4.56
		C1613.349,290.874,1613.4,294.084,1611.75,294.294z"/>
	<path fill="#290C0B" stroke="#290C0B" d="M986.5,293.704c5.16-0.76,10.2,1.77,13.98,5.1c7.44,6.57,9,18.8,3.38,26.99
		c-2.96,4.13-7.16,7.56-12.16,8.78c-7.37,2.22-15.77-0.41-20.88-6.05c-6.02-6.11-7.71-16.56-3.07-23.91l0.64,0.32
		c3.43,5.17,11.36,6.88,15.99,2.32c3.64-3.15,3.43-8.33,2.31-12.58L986.5,293.704z"/>
	<path fill="#E3E9EE" stroke="#E3E9EE" d="M1180.819,317.444c2.58,9.12,2.9,18.77,3.96,28.18c4.65,61.41-10.83,123.63-40.91,177.14
		c-17.33,29.73-43.15,54.91-74.46,69.53c-22.71,9.9-48.15,11.71-72.62,10.17c2.18-4.2,4.15-8.54,6.66-12.57
		c3.35,2.05,7.3,0.61,10.9,0.2c22.26-3.88,43.58-12.89,62.16-25.71c13.45-8.55,25.28-19.27,36.96-30.03
		c4.12-4.22,7.74-8.91,11.92-13.09c11.12-12.9,20.97-26.95,28.96-41.99c20.62-39.06,29.33-83.72,28.28-127.68
		C1183.089,340.174,1181.28,328.844,1180.819,317.444z"/>
	<path fill="#693A0C" stroke="#693A0C" d="M651.549,348.474c11.63-6.16,25.11-9.3,38.26-7.65c13,1.36,25.89,7.16,34.39,17.29
		c8.17,9.65,12.28,22.75,10.59,35.34c-1.63,8.91-7.58,16.33-15.07,21.15c-19.01,12.75-43.42,15.67-65.59,11.48
		c-15.26-3.14-31.43-10.65-38.21-25.59c-2.72-6.38-2.79-14.03,0.33-20.29c4.23-9.46,11.69-17.37,20.81-22.27
		C642.219,355.294,646.379,351.114,651.549,348.474 M653.099,359.044c-5.35,2.75-10.95,5.73-14.66,10.59
		c-6.88,6.39-10.11,16.9-6.55,25.82c1.79,4.14,3.8,9.02,8.54,10.46c13.43,5.31,28.14,7.15,42.52,6.19
		c12.15-1.29,25.02-4.46,34.07-13.19c5.46-5.08,7.51-13.38,4.67-20.33c-4.13-12.44-14.95-22.38-27.78-25.21
		C680.169,350.394,665.759,353.394,653.099,359.044z"/>
	<path fill="#F39A47" stroke="#F39A47" d="M653.099,359.044c12.66-5.65,27.07-8.65,40.81-5.67c12.83,2.83,23.65,12.77,27.78,25.21
		c-14.14,11.73-33.74,15.21-51.58,12.54c-8.85-1.31-17.71-4.45-24.58-10.33c-3.32-3.01-5.35-7.1-7.09-11.16
		C642.149,364.774,647.75,361.794,653.099,359.044 M672.049,358.944c-5.21,0.86-10.91,1.38-15.18,4.81
		c-2.24,1.65-2.43,4.81-1.59,7.26c1.58,4.42,5.36,7.81,9.75,9.35c9.26,3.52,19.42,2.08,28.95,0.62c4.97-0.63,9.76-3.37,12.25-7.81
		c1.16-4.19,0.65-9.31-2.83-12.29c-2.48-1.79-5.67-2-8.61-2.21C687.219,358.304,679.589,357.964,672.049,358.944z"/>
	<path fill="#F9C79A" stroke="#F9C79A" d="M672.049,358.944c7.54-0.98,15.17-0.64,22.74-0.27c2.94,0.21,6.13,0.42,8.61,2.21
		c3.48,2.98,3.99,8.1,2.83,12.29c-2.49,4.44-7.28,7.18-12.25,7.81c-9.53,1.46-19.69,2.9-28.95-0.62c-4.39-1.54-8.17-4.93-9.75-9.35
		c-0.84-2.45-0.65-5.61,1.59-7.26C661.139,360.324,666.839,359.804,672.049,358.944z"/>
	<path fill="#E27818" stroke="#E27818" d="M631.889,395.454c-3.56-8.92-0.33-19.43,6.55-25.82c1.74,4.06,3.77,8.15,7.09,11.16
		c6.87,5.88,15.73,9.02,24.58,10.33c17.84,2.67,37.44-0.81,51.58-12.54c2.84,6.95,0.79,15.25-4.67,20.33
		c-9.05,8.73-21.92,11.9-34.07,13.19c-14.38,0.96-29.09-0.88-42.52-6.19C635.689,404.474,633.68,399.594,631.889,395.454z"/>
	<path fill="#E3E9EE" stroke="#E3E9EE" d="M572.439,381.284c1.59-2.67,3.04-5.52,5.41-7.6c0.23,13.12-1.18,26.4,1.48,39.37
		c3.62,22.4,14.85,43.16,30.45,59.49c21.38,22.69,49.51,37.9,78.57,48.43c36.88,13.36,76.31,18.13,115.37,18.4
		c8.7,0.23,17.35-0.93,26.05-0.84c26.53-1.58,52.91-5.12,79.04-9.91c17.81-3.42,35.54-7.46,52.8-13.09
		c10.21-2.8,19.87-7.25,30.09-10.04c-5.31,4.67-11.94,7.52-18.02,11.05c-39.97,20.98-84.3,32.73-128.98,38.05
		c-31.17,3.83-62.78,4.52-94,0.93c-50.18-5.5-100.12-20.98-141.69-50.22c-23.68-16.77-42.15-42.27-46.58-71.34
		C559.609,415.934,563.24,397.024,572.439,381.284z"/>
	<path fill="#E3E9EE" stroke="#E3E9EE" d="M734.789,393.454c3.56,9.31,3.92,19.92,1.32,29.55c-3.05,11.93-12.41,21.49-23.37,26.66
		c-11.82,5.73-25.06,7.41-38.04,7.8c-10.66-0.76-21.51-1.46-31.64-5.15c-8.91-3.04-17.44-8.41-22.57-16.48
		c-6.73-10.33-7.45-23.63-4.57-35.34c6.78,14.94,22.95,22.45,38.21,25.59c22.17,4.19,46.58,1.27,65.59-11.48
		C727.209,409.784,733.159,402.364,734.789,393.454z"/>
	<path fill="#BC791C" stroke="#BC791C" d="M1382.88,405.704c2.65-2.52,4.41-6.31,7.75-7.91c4.84,21.62,5.86,45.06-2.79,65.87
		c-6.31,14.81-17.66,29.03-33.86,33.22c-18.21,4.27-36.83-3.02-52.19-12.45C1330.199,459.684,1357.479,433.574,1382.88,405.704z"/>
	<path fill="#FEFFFF" stroke="#FEFFFF" d="M243.379,410.274c6.03-4.99,16.07-4.65,21.22,1.45c3.61,4.39,5.34,10,6.43,15.5
		c2.23,14.01,1.2,28.24,0.88,42.35c-0.78,20.07-0.29,40.16-1.06,60.23c-13.69-2.17-27.78-0.56-40.78,4.15
		c-19.56,6.89-37.15,18.17-54.14,29.86c-3.09,2.2-6.47,4.04-9.18,6.74c3.64-0.93,6.76-3.08,10.05-4.78
		c28.4-14.53,59.97-22.98,91.86-24.22c-2.35,6.45-6.29,12.28-7.94,18.99c5.85-9.07,11.07-18.6,17.86-27.05
		c12.59-16.13,27.89-31.18,47.27-38.71c5.6-1.93,11.64-3.82,17.61-2.86c5.34,1.02,7.66,6.78,7.63,11.69
		c0.15,12.69-4.95,24.94-12.17,35.19c-7.82,11.14-16.65,21.54-24.05,32.98c-6.25,9.48-12.28,19.1-18.15,28.82
		c-0.76,1.16-1.35,2.45-1.07,3.88c3.8-1.58,5.67-5.69,9.05-7.91c2.49,6.09,3.96,12.55,6.43,18.66c0.44,1.71,1.8,3.68,0.61,5.38
		c-9.93,17.07-11.63,37.74-9.39,57.02c2.12,18.35,7.42,36.84,18.33,51.97c11.42,15.92,29.61,26.56,48.98,29.21
		c5.39,0.86,10.86,0.19,16.28,0.66c0.35,3.8-0.52,7.56-0.74,11.35c-0.34,6.02-0.31,12.05-0.67,18.06c-7.69-1.5-14.68-5.23-21.8-8.33
		c-18.18-9.32-35.72-19.86-52.61-31.35c-7.09-4.83-14.63-9.17-20.69-15.32c-4.66-4.68-9.35-9.32-13.99-14.01
		c-9.15-9.86-17.36-20.58-26.84-30.14c-3.58-4.37-8.5-7.43-11.81-12.03c10.64-5.43,21.93-9.51,32.94-14.11
		c1.41-0.44,2.56-2.04,1.44-3.37c-1.77-0.58-3.65-0.62-5.48-0.74c-12.14-0.46-23.71-4.5-35.37-7.53
		c-17.72-4.88-36.53-6.5-53.16-14.83c-5.57-2.79-10.53-6.65-14.75-11.21c-7.32-6.72-12.37-15.45-16.71-24.28
		c-0.99-2.12-2.18-4.32-1.95-6.73c5.41-3.53,11.51-5.83,17-9.23c2.5-1.7,6.28-2.63,7.06-5.93c-8.37-0.26-16.71,1.31-25.08,0.67
		c-15.09-1.48-30.16-3.47-44.94-6.91c-6.37-1.45-13.13-2.49-18.52-6.45c-4.91-3.52-7.32-9.34-9.44-14.78l0.05-0.63
		c21.84-21.76,57.07-28.68,85.49-16.7c3.93,1.6,7.51,3.93,11.44,5.5c-0.13-2.38-2.56-3.41-4.1-4.84c-2.39-1.65-3.28-4.65-5.59-6.37
		c-15.04-11.66-30.88-22.31-47.57-31.47c-8.98-5.18-19.06-8.98-26.28-16.71c-5.93-5.65-9.33-14.25-7.54-22.4
		c1.57-6.53,6.99-11.21,12.56-14.47c10.93-6,23.97-8.42,36.27-6.16c14.23,2.96,27.3,9.7,39.73,17.02
		c5.96,3.62,12.16,6.94,17.53,11.43c8.96,7.39,16.01,16.71,23.29,25.67c1.6,1.89,2.9,4.17,5.12,5.43
		c3.15-20.71,8.15-41.26,15.71-60.83C230.099,427.044,234.769,416.824,243.379,410.274z"/>
	<path opacity="0.67" fill="#5F4831" stroke="#5F4831" enable-background="new    " d="M545.609,425.814
		c-1.38-2.35-1.45-6.14,0.01-8.43C545.68,420.194,545.68,423.004,545.609,425.814z"/>
	<path fill="#E2DAD1" stroke="#E2DAD1" d="M206.939,479.914c0.09,0.09,0.27,0.27,0.36,0.36
		C207.209,480.184,207.029,480.004,206.939,479.914z"/>
	<path fill="#E3E9EE" stroke="#E3E9EE" d="M1382.719,513.594c6.3-4.39,11.92-9.84,18.87-13.24c-2.67,3.97-6.76,6.64-9.97,10.11
		c-25.86,24.18-51.25,48.9-78.24,71.83c-30.59,26.1-62.61,50.53-95.94,73.02c-17.15,11.7-34.91,22.47-52.39,33.64
		c-14.57,9.19-28.85,18.84-43.17,28.39c-12.38-36.36-15.49-74.97-17.74-113.06c-0.07-3.44-1.27-7-0.18-10.36
		c9.61-2.41,19.03-5.55,28.55-8.26c1.24,10.52,3.14,21.14,7.29,30.94c3.01,6.18,7.92,12.57,15.12,13.78
		c12.82,1.65,25.72-1.38,37.65-5.96c16.65-6.36,32.52-14.57,48.49-22.45c17.48-8.54,34.59-17.8,51.34-27.7
		C1323.52,555.624,1353.839,535.574,1382.719,513.594z"/>
	<path fill="#E3E9EE" stroke="#E3E9EE" d="M988.99,525.934c10.56-7.23,20.26-15.6,29.62-24.31c-0.15,6.23-0.6,12.46-1.36,18.64
		c-2.39-0.09-3.74,2.14-5.28,3.6c-4.69,5.23-10.36,9.48-16.38,13.07C992.959,533.594,990.339,529.974,988.99,525.934z"/>
	<path fill="#BDA894" stroke="#BDA894" d="M112.989,514.884c0.39,0.21,1.15,0.63,1.53,0.84c-1.17,1.67-3.78,0.65-5.54,0.88
		C109.389,515.174,111.689,515.104,112.989,514.884z"/>
	<path fill="#FEFFFF" stroke="#FEFFFF" d="M1011.969,523.864c1.54-1.46,2.89-3.69,5.28-3.6c-0.55,8.63-1.53,17.26-3.18,25.76
		c-0.83,3.28-1.43,6.82-3.59,9.55c-3.44,0.12-5.18-3.36-7.05-5.67c-2.66-4.29-5.79-8.34-7.84-12.97
		C1001.609,533.344,1007.28,529.094,1011.969,523.864z"/>
	<path fill="#FEFFFF" stroke="#FEFFFF" d="M274.979,529.694c0.39-2.12,0.9-4.22,1.43-6.3c0.25,0.57,0.75,1.72,1,2.3
		C276.679,527.074,275.869,528.404,274.979,529.694z"/>
	<path fill="#EE7B69" stroke="#EE7B69" d="M947.839,547.684c6.84-2.49,13.16-6.15,19.85-8.99c-6.92,17.95-16.36,34.89-27.1,50.82
		c-11.04,15.63-24.22,30.06-40.29,40.62c-18.08,11.79-40.14,18.27-61.76,15.72c-6.84-1.15-13.68-2.88-19.9-5.99
		c8.48-0.01,16.71-2.42,24.89-4.39c18.81-4.28,35.8-15.17,48.2-29.86c4.05-4.92,8.95-9.25,11.92-14.96
		c-11.95,1.21-23.91,2.42-35.92,2.83c-18.18-0.15-36.33-2.45-53.89-7.17c0.74-3.64,1.82-7.2,3.22-10.63
		c9.79-1.6,19.81-1.54,29.64-2.97C881.25,568.474,915.39,560.324,947.839,547.684z"/>
	<path fill="#E3E9EE" stroke="#E3E9EE" d="M60.349,563.264c2.8-3.93,5.43-8.22,9.48-10.99c2.12,5.44,4.53,11.26,9.44,14.78
		c5.39,3.96,12.15,5,18.52,6.45c14.78,3.44,29.85,5.43,44.94,6.91c8.37,0.64,16.71-0.93,25.08-0.67c-0.78,3.3-4.56,4.23-7.06,5.93
		c-5.49,3.4-11.59,5.7-17,9.23c-0.23,2.41,0.96,4.61,1.95,6.73c4.34,8.83,9.39,17.56,16.71,24.28c4.22,4.56,9.18,8.42,14.75,11.21
		c16.63,8.33,35.44,9.95,53.16,14.83c11.66,3.03,23.23,7.07,35.37,7.53c1.83,0.12,3.71,0.16,5.48,0.74
		c1.12,1.33-0.03,2.93-1.44,3.37c-11.01,4.6-22.3,8.68-32.94,14.11c3.31,4.6,8.23,7.66,11.81,12.03
		c9.48,9.56,17.69,20.28,26.84,30.14c4.64,4.69,9.33,9.33,13.99,14.01c6.06,6.15,13.6,10.49,20.69,15.32
		c16.89,11.49,34.43,22.03,52.61,31.35c7.12,3.1,14.11,6.83,21.8,8.33c0.5,6,0.32,12.03,0.76,18.04c0.27,3.84,1.03,7.69,0.61,11.57
		c-28.83-12.61-56.83-27.41-82.78-45.26c-35.85-24.79-67.08-56.03-92.78-91.19c-0.72-1.06-1.55-2.14-1.66-3.44
		c6.59-0.87,13.32-1.28,19.71-3.22c0.08-0.45,0.24-1.36,0.33-1.81c-11.26-0.37-22.46-2-33.42-4.58
		c-17.91-4.5-34.79-14.08-46.73-28.32c-10.95-12.39-17.68-28.54-18.21-45.11c-0.02-1.28,0.1-2.53,0.36-3.76
		c5.11-2.99,10.81-5,15.61-8.52c0.07-0.41,0.23-1.24,0.31-1.65c-1.87-0.27-3.75-0.06-5.59,0.28c-24.09,3.61-48.56,9.31-72.99,5.27
		c-4.76-0.88-10.39-2.8-12.05-7.87C54.269,573.634,57.479,567.974,60.349,563.264z"/>
	<path fill="#E3E9EE" stroke="#E3E9EE" d="M703.68,564.984c11.87,2.81,23.94,4.59,35.94,6.65c-2.58,4.24-5.2,8.89-8.87,12.15
		c-7.32-0.53-14.24-2.95-21.34-4.55C706.599,574.964,705.089,569.874,703.68,564.984z"/>
	<path fill="#D2C5B7" stroke="#D2C5B7" d="M1127.919,573.984c0.38-0.39,1.14-1.15,1.52-1.54c0.3,0.35,0.91,1.05,1.21,1.4
		C1129.949,574.364,1128.109,575.514,1127.919,573.984z"/>
	<path fill="#CFD2D4" stroke="#CFD2D4" d="M765.74,574.594c12.73,0.23,25.46,1.24,38.2,0.96c-2.93,10.44-6.23,20.83-7.69,31.63
		c-0.8,4.76-1.11,9.58-1.76,14.36c-10.64-11.2-18.4-24.79-25.09-38.62C768.039,580.204,766.659,577.494,765.74,574.594z"/>
	<path fill="#FEFFFF" stroke="#FEFFFF" d="M709.409,579.234c7.1,1.6,14.02,4.02,21.34,4.55c-1.78,4.45-5.34,7.92-8.04,11.83
		c-0.92,1.52-2.37-0.1-3.1-0.88C715.529,590.084,711.669,585.034,709.409,579.234z"/>
	<path fill="#F3A594" stroke="#F3A594" d="M813.839,586.314c17.56,4.72,35.71,7.02,53.89,7.17c12.01-0.41,23.97-1.62,35.92-2.83
		c-2.97,5.71-7.87,10.04-11.92,14.96c-12.4,14.69-29.39,25.58-48.2,29.86c-8.18,1.97-16.41,4.38-24.89,4.39
		c-5.3-2.57-10.45-5.61-14.85-9.55c1-10.06,3.82-19.84,5.95-29.7C811.009,595.824,812.019,590.934,813.839,586.314 M818.149,605.054
		c-6.82,3.53-5.35,15.87,2.63,16.7c9.86,0.22,19.79-0.25,29.56-1.64c8.33-1.84,16.08-5.92,22.76-11.17
		c1.54-1.32,3.52-2.32,4.49-4.17c-6.43-1.98-13.09-3.04-19.66-4.42C844.649,598.184,830.229,598.534,818.149,605.054z"/>
	<path fill="#D4C8BB" stroke="#D4C8BB" d="M310.559,592.454c-1.36-0.49-1.42-1.11-0.17-1.87
		C310.439,591.054,310.519,591.984,310.559,592.454z"/>
	<path fill="#CBBBAC" stroke="#CBBBAC" d="M119.809,596.324c0.3-0.24,0.9-0.72,1.19-0.96c0.14,0.34,0.41,1,0.54,1.34
		C121.109,596.604,120.249,596.414,119.809,596.324z"/>
	<path fill="#C52D18" stroke="#C52D18" d="M738.049,598.634c8.3,21.39,18.44,42.53,33.85,59.79
		c25.61,30.23,67.19,46.85,106.55,40.55c1.6,1.81,2.53,4.1,3.8,6.16c2.35,4.04,5.47,7.54,8.34,11.22
		c-6.25,0.67-12.23,2.74-18.44,3.6c-20.73,3.13-42.33,2.21-62.32-4.42c-29.3-8.93-55.36-28.04-72.92-53.1
		c-0.36-4.26,0.52-8.5,0.6-12.76C738.009,632.664,737.689,615.644,738.049,598.634z"/>
	<path fill="#FCE6E3" stroke="#FCE6E3" d="M818.149,605.054c12.08-6.52,26.5-6.87,39.78-4.7c6.57,1.38,13.23,2.44,19.66,4.42
		c-0.97,1.85-2.95,2.85-4.49,4.17c-6.68,5.25-14.43,9.33-22.76,11.17c-9.77,1.39-19.7,1.86-29.56,1.64
		C812.799,620.924,811.329,608.584,818.149,605.054z"/>
	<path fill="#C52D18" stroke="#C52D18" d="M1070.5,610.324c7.05-1.86,13.43-5.52,20.27-7.92c0.2,13.09-0.41,26.19,0.26,39.27
		c0.53,6.63,0.74,13.28,1.33,19.91c-23.38,4.24-47.82,4.23-70.84-2c3.27-12.09,5.69-24.45,6.2-36.98c0.06-2.52,0.02-5.04,0.57-7.5
		C1042.479,615.654,1056.88,614.554,1070.5,610.324z"/>
	<path fill="#E2DAD1" stroke="#E2DAD1" d="M718.039,608.624c1.25,0.67,1.24,1.3-0.05,1.92
		C718,610.064,718.029,609.104,718.039,608.624z"/>
	<path fill="#E3E9EE" stroke="#E3E9EE" d="M991.429,611.294c0.76-1.59,2.78-0.56,4.1-0.49c4.76,1.07,9.62,1.63,14.37,2.8
		c-4.1,15.86-11.69,30.69-21.16,44.01c-6.43,8.77-13.53,17.26-22.6,23.43c-21.97,15.11-50.11,22.61-76.46,16.63l-0.82-0.15
		c0.24-0.24,0.71-0.71,0.94-0.95c29.97-8.38,55.56-27.96,76.04-50.9C975.37,635.004,983.849,623.424,991.429,611.294z"/>
	<path fill="#FEFFFF" stroke="#FEFFFF" d="M1009.9,613.604c1.26-0.03,2.54-0.01,3.84,0.07c0.19,4.06-1.24,7.94-1.93,11.9
		c-3.56,17.73-9.77,35.14-19.87,50.24c-9.09,13.94-21.22,26.1-35.88,34.12c-7.33,3.93-15.05,7.7-23.46,8.37
		c-12.87,1.38-25.46-4.28-35.11-12.46c-2.8-2.52-5.94-4.84-7.81-8.17c26.35,5.98,54.49-1.52,76.46-16.63
		c9.07-6.17,16.17-14.66,22.6-23.43C998.209,644.294,1005.799,629.464,1009.9,613.604z"/>
	<path fill="#FEFFFF" stroke="#FEFFFF" d="M726.68,627.584c1.22-1.58,2.46-3.18,4.14-4.3c-0.69,12.57-3.16,24.96-4.98,37.4
		c-4.35,26.38-8.66,52.81-15.32,78.72c-3.6,14.82-8.07,29.4-12.16,44.08c-1.64-0.99-2.25-2.9-3.09-4.48
		c-16.03-32.35-40.34-59.85-67.45-83.37c1.71-1.83,4.57-2.01,6.79-3.07C669.859,678.704,702.839,657.374,726.68,627.584z"/>
	<path fill="#BC791C" stroke="#BC791C" d="M314.869,625.734c1.1,0.9,1.49,2.34,2.12,3.57c6.72,14.77,15.26,28.82,26.28,40.79
		c15.34,16.92,34.87,30.63,57.1,36.64c-5.1,12.86-9.61,26.05-11.89,39.74c-5.89,0.69-11.67-1.07-17.37-2.29
		c-17.22-4.02-33.35-13.8-43.67-28.32c-12.83-17.22-16.83-39.25-17.41-60.27C310.439,645.524,311.109,635.194,314.869,625.734z"/>
	<path fill="#FCE6E3" stroke="#FCE6E3" d="M495.629,640.304c3.34-0.79,6.84-0.8,10.18,0
		C502.409,640.274,499.019,640.274,495.629,640.304z"/>
	<path opacity="0.71" fill="#715C48" stroke="#715C48" enable-background="new    " d="M1351.579,650.544
		c2.1-1.93,6.03-0.72,8.84-0.74l0.43,0.74C1357.75,650.644,1354.659,650.634,1351.579,650.544z"/>
	<path fill="#FEFFFF" stroke="#FEFFFF" d="M481.719,656.674c21.46-3.88,43.49,0.86,63.71,8.2c4.14,1.81,8.86,2.74,12.49,5.5
		c5.4,13.07,9.71,26.6,13.86,40.12c3.16,10.96,4.76,22.28,6.46,33.53c4.13,31.32,5.14,63.1,2.29,94.59
		c-2.08,20.77-7.18,41.16-13.95,60.88c-1.96,4.95,2.65,9.25,3.2,14.06c-2.46,44.29,9.28,87.75,22.39,129.63
		c6.54,20.74,13.83,41.28,22.82,61.1c6.97,16.05,14.79,31.71,22.68,47.33c8.25,17.98,17.62,35.44,25.39,53.65
		c6.39,14.77,12.57,29.72,16.61,45.34c6,21.81,8.57,45.16,3.41,67.41c-3.83,15.64-11.75,30.36-23.07,41.86
		c-14.05,14.79-31.96,25.28-50.43,33.58c-27.3,11.79-57.11,17.86-86.86,17.31c-19.49,0.28-38.95-2.59-57.8-7.43
		c-8.58-2.13-16.79-5.46-25.36-7.63c-6.03-2.53-11.22-6.7-16.66-10.26c-9.21-6.32-17.94-13.3-26.31-20.68
		c-1.74-1.64-3.91-2.97-5.01-5.14c1.9-2.25,5.63-3.07,6.23-6.18c-3.86,0.16-7.27,2.32-10.94,3.31c-19.71,6.17-40.54,9.84-61.21,7.74
		c-8.23-1.27-16.91-3.82-22.77-10.08c-5.92-6.26-7.28-15.56-5.92-23.79c2.13-14.35,10.78-26.87,21.19-36.59
		c7.59-6.89,16.47-12.48,26.22-15.74c2.25-0.9,4.53,0.39,6.7,0.95c17.21,5.47,36.38,3.83,52.65-3.85c0.03-0.45,0.07-1.35,0.09-1.79
		c-9.12-0.72-18.32-0.88-27.31-2.76c-17.92-3.75-35.69-10.36-50.03-21.99c-7.32-5.77-13.42-13.18-17.31-21.67
		c-2.4-5.13-3.35-10.96-2.36-16.56c1.68-10.7,7.88-20.03,14.84-28.07c4.5-4.89,9.12-10.02,15.35-12.7
		c7.34-3.56,15.72-4.17,23.74-3.37c3.95,0.12,6.38,3.71,9.57,5.54c14.36,9.24,31.76,11.76,48.47,12.96
		c9.35,0.36,18.72,1.38,28.08,0.71c-0.1-0.44-0.31-1.32-0.41-1.75c-17.96-4-35.97-8.57-52.68-16.43
		c-11.93-5.78-24.51-13.43-29.78-26.23c-3.44-8.82-1.43-19.03,3.61-26.82c5.38-7.75,15.19-10.58,24.16-11.14
		c18.6-1,36.8,4.17,54.25,10.01c33.95,11.65,63.89,32.69,89.72,57.28c42.78,40.7,75.84,90.03,114.93,134.03
		c2.59,2.68,4.81,5.75,7.78,8.06c-3.75-6.65-8.6-12.63-12.82-18.97c-22.21-31.77-45.51-62.81-70.81-92.19
		c-24.5-28.12-50.34-55.59-81.09-76.99c-1.53-0.9-2.34-2.47-2.88-4.07c-15.75-43.02-29.48-86.74-43.62-130.3
		c-2.3-7.17-4.43-14.4-7.16-21.41c13.19,0.76,27.03,0.33,39.05-5.8c10.84-5.59,20.36-14.68,24.77-26.22
		c3.69-9.21,0.8-20.27-6.21-27.11c-6.25-6.54-15.18-9.6-23.89-11.14c-13.08-1.82-26.76-0.34-38.73,5.46
		c-4.67,1.93-8.5,5.36-13.08,7.46c-11.88-40.4-21.37-82.1-20.99-124.43c19.58-0.66,39.27-6.4,55.39-17.69
		c33.9-22.96,45.51-72.11,26.89-108.29C482.599,659.614,481.839,658.224,481.719,656.674 M480.959,1199.894
		c-14.26,9.4-25.96,22.1-36.7,35.25c-11.2,14.11-22.46,28.41-30.3,44.73c-8.89,18.03-13.81,38.51-10.81,58.61
		c0.03,0.98,0.53,1.65,1.49,2.02c1.14-5.54,0.51-11.32,2.16-16.77c4.26-18.09,14.88-33.68,25.31-48.73
		c19.81-27.53,36.92-57.71,62.78-80.22c0.22-0.54,0.65-1.63,0.86-2.17C490.359,1193.924,485.649,1197.054,480.959,1199.894z"/>
	<path fill="#BC791C" stroke="#BC791C" d="M439.139,679.014c9.88-8.97,21.28-17,34.36-20.32c7.59,15.64,9.62,33.78,6.98,50.89
		c-2.46,17.14-10.37,33.79-23.59,45.23c-11.67,10.45-26.51,16.65-41.57,20.39c-4.49,0.95-8.94,2.23-13.54,2.44
		c-1.08-1.83-0.4-3.99-0.37-5.97c0.87-15.79,3.55-31.57,8.88-46.49C416.199,707.854,426.019,691.814,439.139,679.014z"/>
	<path fill="#EA5115" stroke="#EA5115" d="M1016.859,671.644c1.97-3.86,2.83-8.16,4.66-12.06c23.02,6.23,47.46,6.24,70.84,2
		c4,40.05,13.47,80.03,31.69,116.1c-1.78,4.86-4.67,9.3-8.08,13.17c-27.22,23.6-58.08,43.32-91.81,56.21
		c-43.79,16.75-91.7,23.82-138.3,17.36c-24.76-3.55-49.03-11.05-71.09-22.89c-4.28-2.37-8.4-5.04-12.92-6.92
		c12.93,12.22,28.27,21.59,43.89,29.97c38.07,19.15,81.55,27.83,124.03,23.86c17.3-1.31,34.26-5.12,50.98-9.57
		c-5.77,4.27-12.57,6.74-19.02,9.75c-43.17,19.18-93.07,23.85-138.59,10.53c-41.9-12.38-78.62-36.82-115.48-59.48
		c-9.42-5.75-18.7-11.84-28.81-16.32c-2.22-2.65-3.29-6.02-4.88-9.03c-1.49-3.33-3.61-6.35-4.85-9.77
		c2.35-8.27,5.54-16.31,7.83-24.62c10.9-38.3,16.71-77.87,19.96-117.5c17.56,25.06,43.62,44.17,72.92,53.1
		c19.99,6.63,41.59,7.55,62.32,4.42c6.21-0.86,12.19-2.93,18.44-3.6c7.19,7.55,15.49,14.24,25.24,18.2
		c7.15,3.18,15.22,2.63,22.83,2.04c15.81-2.62,30.21-10.66,42.98-20.04C997.14,705.094,1009.25,689.314,1016.859,671.644z"/>
	<path fill="#FEFFFF" stroke="#FEFFFF" d="M1337.059,665.004c15.96-3.09,32.58-2.91,48.39,0.94c0.35,4.93-0.87,9.79-0.99,14.71
		c-0.27,10.73-0.52,21.64,2.06,32.15c3.82,17.5,12.85,33.81,25.7,46.3c12.24,11.88,27.6,20.49,44.13,24.72
		c13.93,3.4,28.75,2.3,42.26-2.34c1.51-0.46,3.86-1.51,4.53,0.7c9.18,16.6,18.14,33.35,26.5,50.38
		c-15.09,5.68-30.15,13.96-39.4,27.62c-4.74,6.76-6.47,15.75-3.66,23.61c2.88,7.46,9.18,12.89,15.57,17.37
		c13.2,9.17,31.18,11.89,45.97,4.94c6-2.53,10.88-6.87,15.48-11.36c9.14,14.15,17.87,28.61,27.47,42.48
		c8.41,12.42,17.32,24.51,26.24,36.58c-18.74,33.21-34.67,68.3-43.95,105.4c-0.26,1.11-0.45,2.24-0.57,3.4
		c1.88-0.45,2.08-2.64,2.83-4.1c25.19-66.67,61.4-129.22,107.11-183.91c11.73-13.25,25.49-25.28,42.11-31.89
		c12.16-5.04,25.71-6.98,38.73-4.68c7.9,1.73,15.65,5.54,20.82,11.93c4.63,6,7.64,13.99,5.26,21.53
		c-4.08,14.44-15.41,25.04-25.35,35.65c-0.73,0.99-2.33,2.05-1.56,3.48c1.36,0.69,2.76-0.47,4.08-0.86
		c10.25-4.79,20.21-10.73,27.92-19.14c3.91-4.06,6.53-9.05,9.15-13.98c15.03-2.67,29.78,5.25,39.82,15.94
		c5.69,6.38,10.62,14.18,11,22.95c0.56,10.09-4.78,19.44-11.29,26.74c-10.64,11.78-24.21,20.44-37.99,28.09
		c-2.13,1.68-6.58,2.19-6.76,5.17c12.27-0.73,24.52-2.84,36.17-6.84c5.42-1.81,10.26-4.9,15.33-7.46
		c11.55-1.29,23.41-0.69,34.69,2.26c15.31,3.83,28.27,16.06,32.79,31.22c3.15,8.71,2.08,18.63-2.1,26.82
		c-3.95,7.41-10.66,12.91-17.8,17.09c-12.74,7.22-27.56,10-42.06,10.36c-10.36,0.05-20.73,0.17-31.06-0.64
		c-5.63-0.06-11.23-1.27-16.85-0.69c1.04,2.74,4.57,2.83,6.84,4.22c-0.7,2.53-2.59,4.47-4,6.61
		c-14.68,21.03-30.49,41.29-47.72,60.29c-1.66,1.65-2.99,3.8-5.12,4.85c-7.8,1.94-14.95,5.69-22.34,8.74
		c-28.62,13.33-52.33,35.37-81.71,47.25c-9.02,3.47-18.4,6.33-28.06,7.18c-10.7,0.94-21.68-1.65-30.76-7.39
		c-14.17-8.85-25.11-21.96-34.11-35.85c-19.54-30.27-31.06-64.67-47.38-96.62c-17.22-35.13-36.39-69.25-53.72-104.32
		c-10.56-21.07-20.24-42.55-30-64c-3.29-6.95-6.02-14.21-10.32-20.63c-4.34-6.5-8.93-13.06-15.27-17.77
		c-9.44-7.9-22.1-12.02-34.38-10.59c-12.08,1.47-22.59,8.61-31.65,16.32c-8,6.94-14.59,15.43-22.98,21.91
		c-6.93-23.83-10.47-48.55-12.77-73.22c-2.46-24.35-2.84-48.99,0.02-73.33c2.6-23.01,7.98-45.7,15.47-67.59
		c4.08-2.03,8.49-3.34,12.51-5.54C1332.52,667.034,1334.599,665.534,1337.059,665.004 M1698.77,945.804
		c3.54,3.02,8.23,4.14,12.15,6.59c10.17,5.47,19.88,11.81,28.81,19.14c25.5,20.53,44.62,47.58,62.16,74.9
		c0.91,1.27,1.74,3.11,3.63,2.98c-3.44-20.02-13.76-38.37-27.11-53.47C1757.299,972.174,1729.15,954.924,1698.77,945.804
		 M1540.039,965.994c-9.73,3.93-20.59,5.42-29.28,11.66c-3.66,2.77-7.29,6.29-8.16,10.99c-1.31,5.94,1.78,12.06,6.4,15.7
		c5.14,4.14,11.72,5.92,18.17,6.74c7.98,0.78,16.65,0.07,23.4-4.67c6.9-4.97,11.71-13.2,11.58-21.82c0.08-6.55-3.09-13.11-8.47-16.9
		C1549.709,964.994,1544.549,964.784,1540.039,965.994z"/>
	<path fill="#BC791C" stroke="#BC791C" d="M1395.859,669.564c10.19,3.05,19.4,8.72,28.1,14.73c27.88,19.48,48.06,47.61,66.2,75.9
		c1.53,2.42,3.01,4.88,4.13,7.53c-18.03,3.73-37.2,0-53.63-8.03c-21.47-10.32-35.43-31.82-41.82-54.19
		C1395.63,693.834,1395.13,681.584,1395.859,669.564z"/>
	<path fill="#6D8D2A" stroke="#6D8D2A" d="M577.689,679.864c23.76,13.1,44.03,31.62,62.11,51.67
		c10.61,12.54,21.01,25.36,29.87,39.21c0.69,10.97-0.4,21.96-1.21,32.91c-2.59,25.86-6.98,51.53-12.8,76.85
		c-2.94,13.52-6.32,26.95-10.32,40.2c-5.17-7.01-9.3-14.71-13.39-22.37c-11-19.34-18.58-40.57-22.51-62.46
		c-3.34-15.1-4.94-30.52-8.46-45.58c-1.2-6.19-0.99-12.52-1.41-18.77c-2.31-27.4-7.23-54.81-17.31-80.49
		C580.709,687.314,578.629,683.804,577.689,679.864z"/>
	<path fill="#6D8D2A" stroke="#6D8D2A" d="M1281.709,693.474c6.38-5.21,13.21-10.17,21.1-12.82c-3.33,10.11-6.95,20.16-9.32,30.56
		c-5.41,22.74-7.76,46.1-8.82,69.4c-1.42,42.43,0.72,85.92,15.37,126.17c-1.72,3.27-4.98,5.15-7.76,7.39
		c-8.05,6.21-15.56,13.09-23.09,19.91c-5.34,4.24-9.38,9.92-15.04,13.77c-10.06-18.54-19.1-37.68-26.1-57.59
		c-7.52-21.28-13.33-43.14-17.68-65.28c-3.19-14.95-4.95-30.17-5.61-45.42c-0.26-2.23,0.46-4.36,2.06-5.92
		C1230.329,745.674,1252.549,715.954,1281.709,693.474z"/>
	<path fill="#D9CEC2" stroke="#D9CEC2" d="M611.669,683.034c0.54-0.16,1.62-0.5,2.17-0.67l0.85,0.57
		C613.939,684.024,612.479,684.024,611.669,683.034z"/>
	<path fill="#C0AD99" stroke="#C0AD99" d="M403.74,694.924c0.51-0.18,1.54-0.54,2.05-0.72l0.85,0.52
		C406.06,695.964,404.509,695.934,403.74,694.924z"/>
	<path fill="#C52D18" stroke="#C52D18" d="M1124.049,777.684c6.42,12.87,14.1,25.2,23.4,36.21c0.62,0.89,2.18,2.12,0.94,3.24
		c-23.75,27.52-48.72,54.18-76.74,77.44c-29.25,24.48-63.43,44.28-101.14,51.87c-25.72,5.76-52.46,4.64-78.2-0.39
		c-21.1-4.33-41.83-10.42-61.99-17.98c-19.27-6.8-38.23-14.8-55.77-25.31c-22.09-20.61-40.34-45.42-53.23-72.77
		c-1.07-2.12-2.16-4.27-2.47-6.64c10.11,4.48,19.39,10.57,28.81,16.32c36.86,22.66,73.58,47.1,115.48,59.48
		c45.52,13.32,95.42,8.65,138.59-10.53c6.45-3.01,13.25-5.48,19.02-9.75c-16.72,4.45-33.68,8.26-50.98,9.57
		c-42.48,3.97-85.96-4.71-124.03-23.86c-15.62-8.38-30.96-17.75-43.89-29.97c4.52,1.88,8.64,4.55,12.92,6.92
		c22.06,11.84,46.33,19.34,71.09,22.89c46.6,6.46,94.51-0.61,138.3-17.36c33.73-12.89,64.59-32.61,91.81-56.21
		C1119.38,786.984,1122.27,782.544,1124.049,777.684z"/>
	<path fill="#CFDF74" stroke="#CFDF74" d="M680.009,786.684c5.15,6.26,8.78,13.61,13.27,20.35c5.51,9.17,11.2,18.25,16.56,27.52
		c8.32,17.6,18.24,34.47,29.95,50.04c10.25,13.27,22.1,25.3,35.26,35.69c5.05,3.47,10.64,6.06,16.05,8.92
		c37.12,18.65,77.32,31.93,118.79,35.98c39.12,3.89,79.65-1.11,115.4-18.01c33.39-15.42,62.03-39.29,87.85-65.15
		c29.69-30.06,56.19-63.05,83.4-95.32c0.95,8.94,0.78,17.97,1.93,26.91c4.62,43.87,17.73,86.66,37.01,126.28
		c2.89,6.23,6.41,12.16,9.26,18.41c-8.14,7.32-14.89,15.97-22.75,23.56c-4.77,4.58-8.99,9.67-13.55,14.45
		c-25.21,25.63-50.98,51.52-82.3,69.72c-31.91,18.88-68.51,29.49-105.47,31.7c-22.36,1.91-44.79-0.41-66.99-2.96
		c-20.06-2.35-39.92-6.31-59.34-11.81c-40.37-10.92-80.29-24.34-117.62-43.36c-32.71-16.56-63.29-37.76-88.81-64.19
		c-11.57-11.31-21.59-24.06-31.19-37.06c5.49-21.14,10.83-42.37,14.88-63.85C677.379,845.624,681,816.184,680.009,786.684z"/>
	<path fill="#4E6523" stroke="#4E6523" d="M600.979,790.294c3.52,15.06,5.12,30.48,8.46,45.58c3.93,21.89,11.51,43.12,22.51,62.46
		c4.09,7.66,8.22,15.36,13.39,22.37c-6.12,20-12.97,39.84-21.64,58.89c-2.82,6.42-5.61,12.88-9.15,18.94
		c-2.49-3.07-3.58-7-5.28-10.52c-10.3-21.9-20.46-43.88-31.58-65.39c-0.87-1.97-2.65-4.17-1.27-6.32
		c12.58-27.49,20.31-57.17,22.78-87.3c1-5.89,0.25-11.89,1.08-17.79C601.139,804.264,599.969,797.234,600.979,790.294z"/>
	<path fill="#E3E9EE" stroke="#E3E9EE" d="M1161.169,800.594l0.19-0.01C1161.309,800.594,1161.219,800.594,1161.169,800.594z"/>
	<path fill="#BC791C" stroke="#BC791C" d="M1517.839,842.664c4.27-2.64,8.6-5.64,13.56-6.78c4.84,8.59,8.9,17.6,13.81,26.16
		c3.55,7.28,8.22,14.03,11.47,21.43c-2.26,4.18-6.71,6.9-10.63,9.46c-9.04,5.82-20.85,6-30.6,1.89
		c-6.38-2.67-12.58-6.85-15.75-13.18c-3.22-6.09-2.66-13.64,0.34-19.69C1503.909,853.944,1510.52,847.564,1517.839,842.664z"/>
	<path fill="#E3E9EE" stroke="#E3E9EE" d="M1338.079,865.934c9.06-7.71,19.57-14.85,31.65-16.32c12.28-1.43,24.94,2.69,34.38,10.59
		c6.34,4.71,10.93,11.27,15.27,17.77c4.3,6.42,7.03,13.68,10.32,20.63c9.76,21.45,19.44,42.93,30,64
		c17.33,35.07,36.5,69.19,53.72,104.32c16.32,31.95,27.84,66.35,47.38,96.62c9,13.89,19.94,27,34.11,35.85
		c9.08,5.74,20.06,8.33,30.76,7.39c9.66-0.85,19.04-3.71,28.06-7.18c29.38-11.88,53.09-33.92,81.71-47.25
		c7.39-3.05,14.54-6.8,22.34-8.74c-3.79,5.44-8.91,9.8-13.47,14.58c-25.54,24.92-54.1,47.28-86.53,62.51
		c-16.97,8.16-36.19,12.8-55,9.79c-17.58-2.58-33.7-11.47-47.01-22.99c-24.99-21.96-41.77-51.42-55.76-81.19
		c-16.08-35.29-27.77-72.33-41.37-108.59c-13.36-36.03-28.04-71.87-48.59-104.48c-9.9-15.67-21.29-30.44-34.38-43.59
		c-0.85-0.79-1.65-1.68-2.76-2c-12.12,17.27-23.93,34.76-36.2,51.94c-2.34,3.19-4.42,6.59-7.1,9.53c-3.61-6.32-5.6-13.41-8.21-20.17
		c-2.33-6.96-4.73-13.94-6.3-21.11C1323.49,881.364,1330.079,872.874,1338.079,865.934z"/>
	<path fill="#E8E1D9" stroke="#E8E1D9" d="M1372.909,882.544c0.52-1.4,1.12-1.43,1.79-0.08
		C1374.26,882.484,1373.359,882.524,1372.909,882.544z"/>
	<path fill="#4E6523" stroke="#4E6523" d="M1300.039,906.784c4.43,13.4,11.15,25.88,18.54,37.85
		c-11.28,16.18-23.64,31.58-35.77,47.13c-1.38,1.83-2.82-0.6-3.52-1.73c-8.8-13.8-17.36-27.78-25.14-42.18
		c5.66-3.85,9.7-9.53,15.04-13.77c7.53-6.82,15.04-13.7,23.09-19.91C1295.059,911.934,1298.319,910.054,1300.039,906.784z"/>
	<path fill="#BC791C" stroke="#BC791C" d="M442.109,911.994c13.23-3.37,27.9-4.15,40.59,1.6c5.46,2.5,10.64,7.57,10.4,14
		c0.42,7.8-4.38,14.53-9.31,20.08c-7.59,7.56-17.09,14.17-28.07,15.07c-5.9,0.35-11.97,0.27-17.68-1.4
		c-3.98-10.04-6.72-20.54-10.23-30.75c-1.04-3.94-2.86-7.73-3.16-11.82C429.919,915.364,436.079,913.594,442.109,911.994z"/>
	<path fill="#E3E9EE" stroke="#E3E9EE" d="M569.779,913.554c3.1,5.57,4.82,11.81,7.32,17.67c16.54,42.81,31.51,86.21,47.86,129.09
		c12.41,33.11,26.39,65.61,41.49,97.58c17.95,38.96,35.87,78.54,44,120.92c3.17,17.98,5.95,36.57,2.28,54.71
		c-3.47,20.01-14.03,38.46-28.68,52.41c-22.45,21.33-52.06,33.43-81.93,40.05c-24.66,5.53-50.4,6.73-75.37,2.6
		c-29.78-4.64-58.33-15.63-84.37-30.66c-1.02-0.67-1.94-1.44-2.82-2.22c8.57,2.17,16.78,5.5,25.36,7.63
		c18.85,4.84,38.31,7.71,57.8,7.43c29.75,0.55,59.56-5.52,86.86-17.31c18.47-8.3,36.38-18.79,50.43-33.58
		c11.32-11.5,19.24-26.22,23.07-41.86c5.16-22.25,2.59-45.6-3.41-67.41c-4.04-15.62-10.22-30.57-16.61-45.34
		c-7.77-18.21-17.14-35.67-25.39-53.65c-7.89-15.62-15.71-31.28-22.68-47.33c-8.99-19.82-16.28-40.36-22.82-61.1
		C579.06,1001.304,567.319,957.844,569.779,913.554z"/>
	<path fill="#A2C73D" stroke="#A2C73D" d="M656.719,938.354c9.6,13,19.62,25.75,31.19,37.06c25.52,26.43,56.1,47.63,88.81,64.19
		c37.33,19.02,77.25,32.44,117.62,43.36c19.42,5.5,39.28,9.46,59.34,11.81c22.2,2.55,44.63,4.87,66.99,2.96
		c36.96-2.21,73.56-12.82,105.47-31.7c31.32-18.2,57.09-44.09,82.3-69.72c4.56-4.78,8.78-9.87,13.55-14.45
		c7.86-7.59,14.61-16.24,22.75-23.56c8.45,14.14,16.57,28.55,26.34,41.87c1.27,1.51,2.27,3.68,0.43,5.24
		c-23.18,27.66-47.9,54.15-75.2,77.81c-29.25,25.49-61.51,47.72-96.53,64.52c-37.7,18.07-78.47,29.74-120.06,34.08
		c-49.1,5.14-99.1-1.07-146-16.22c-36.17-11.61-70.62-28.23-102.95-48.11c-33.13-20.31-64.03-44.07-93.22-69.68
		c-3.72-3.1-4.73-8.07-6.82-12.22c-2.66-6.4-5.96-12.53-8.36-19.02c1.12-3.09,3.25-5.62,4.92-8.4
		c10.44-17.38,18.4-36.16,24.61-55.42C653.569,947.974,654.859,943.064,656.719,938.354z"/>
	<path fill="#693A0C" stroke="#693A0C" d="M1698.77,945.804c30.38,9.12,58.53,26.37,79.64,50.14c13.35,15.1,23.67,33.45,27.11,53.47
		c-1.89,0.13-2.72-1.71-3.63-2.98c-17.54-27.32-36.66-54.37-62.16-74.9c-8.93-7.33-18.64-13.67-28.81-19.14
		C1707,949.944,1702.309,948.824,1698.77,945.804z"/>
	<path fill="#693A0C" stroke="#693A0C" d="M1540.039,965.994c4.51-1.21,9.67-1,13.64,1.7c5.38,3.79,8.55,10.35,8.47,16.9
		c0.13,8.62-4.68,16.85-11.58,21.82c-6.75,4.74-15.42,5.45-23.4,4.67c-6.45-0.82-13.03-2.6-18.17-6.74
		c-4.62-3.64-7.71-9.76-6.4-15.7c0.87-4.7,4.5-8.22,8.16-10.99C1519.449,971.414,1530.309,969.924,1540.039,965.994
		 M1540.099,973.114c-8.76,2.43-16.91,6.61-24.61,11.35c-2.33,1.71-5.31,3.88-4.86,7.16c-0.01,3.67,3.33,6.12,6.1,7.97
		c8.22,4.23,18.2,4.85,26.97,1.94c5.16-1.84,9.16-6.58,9.79-12.07c0.49-4.74,1.2-10.49-2.41-14.23
		C1548.349,972.174,1543.76,972.184,1540.099,973.114z"/>
	<path fill="#FEFFFF" stroke="#FEFFFF" d="M1861.089,970.934c0.38-0.33,1.14-0.99,1.51-1.32c0.51,0.37,1.52,1.1,2.03,1.46
		C1863.559,971.374,1861.539,972.504,1861.089,970.934z"/>
	<path fill="#BC791C" stroke="#BC791C" d="M1540.099,973.114c3.66-0.93,8.25-0.94,10.98,2.12c3.61,3.74,2.9,9.49,2.41,14.23
		c-0.63,5.49-4.63,10.23-9.79,12.07c-8.77,2.91-18.75,2.29-26.97-1.94c-2.77-1.85-6.11-4.3-6.1-7.97c-0.45-3.28,2.53-5.45,4.86-7.16
		C1523.189,979.724,1531.339,975.544,1540.099,973.114z"/>
	<path fill="#FEFFFF" stroke="#FEFFFF" d="M646.959,1072.074c1.49-0.49,2.04,1.57,2.64,2.55c-0.26,0.26-0.77,0.78-1.03,1.04
		C647.789,1074.664,646.189,1073.454,646.959,1072.074z"/>
	<path opacity="0.46" fill="#52473D" stroke="#52473D" enable-background="new    " d="M1852.929,1082.714c1.17-0.1,2.35-0.1,3.57,0
		C1856.74,1084.504,1852.65,1084.504,1852.929,1082.714z"/>
	<path fill="#693A0C" stroke="#693A0C" d="M469.93,1110.944C470.439,1111.444,470.439,1111.444,469.93,1110.944z"/>
	<path fill="#B49C85" stroke="#B49C85" d="M471.979,1110.834C472.5,1111.344,472.5,1111.344,471.979,1110.834z"/>
	<path fill="#FCE6E3" stroke="#FCE6E3" d="M355.469,1156.284c1.73,1.02,1.66,3.94-0.84,2.74
		C354.169,1157.884,354.459,1156.974,355.469,1156.284z"/>
	<path opacity="0.74" fill="#A7A29B" stroke="#A7A29B" enable-background="new    " d="M351.979,1157.774l0.85-0.35
		c0.19,0.35,0.58,1.04,0.77,1.38c-0.42-0.06-1.25-0.19-1.66-0.25L351.979,1157.774z"/>
	<path fill="#693A0C" stroke="#693A0C" d="M480.959,1199.894c4.69-2.84,9.4-5.97,14.79-7.28c-0.21,0.54-0.64,1.63-0.86,2.17
		c-25.86,22.51-42.97,52.69-62.78,80.22c-10.43,15.05-21.05,30.64-25.31,48.73c-1.65,5.45-1.02,11.23-2.16,16.77
		c-0.96-0.37-1.46-1.04-1.49-2.02c-3-20.1,1.92-40.58,10.81-58.61c7.84-16.32,19.1-30.62,30.3-44.73
		C455,1221.994,466.699,1209.294,480.959,1199.894z"/>
	<path fill="#FCE6E3" stroke="#FCE6E3" d="M934.469,1202.094c10.1-0.27,20.21,0.03,30.32-0.28c-4.95,1.04-10.05,0.51-15.07,0.63
		C944.63,1202.284,939.52,1202.844,934.469,1202.094z"/>
	<path fill="#FCE6E3" stroke="#FCE6E3" d="M330.189,1270.344c1.24-0.11,3.68,1.14,1.54,2.12
		C330.229,1272.324,329.719,1271.624,330.189,1270.344z"/>
	<path fill="#BCA893" stroke="#BCA893" d="M329.149,1272.914l1.03-0.42l0.82,0.52c-0.5,0.2-1.51,0.6-2.01,0.81L329.149,1272.914z"/>
	<path fill="#FCE6E3" stroke="#FCE6E3" d="M734.019,1307.504c0.82,3.67,0.82,7.51,0.01,11.19
		C734.039,1314.964,734.029,1311.234,734.019,1307.504z"/>
	<path fill="#C6B5A4" stroke="#C6B5A4" d="M383.799,1365.374c0.6-1.3,1.24-1.32,1.92-0.03
		C385.239,1365.344,384.279,1365.364,383.799,1365.374z"/>
</g>
</svg>
